<svg width="1005" height="317" viewBox="0 0 1005 317" fill="none" xmlns="http://www.w3.org/2000/svg">
<path d="M736.927 42.1046C749.515 22.4402 778.243 22.4403 790.83 42.1046L813.469 77.4723C827.103 98.7717 811.807 126.724 786.518 126.724H741.24C715.951 126.724 700.655 98.7716 714.288 77.4723L736.927 42.1046Z" fill="#714230"/>
<ellipse cx="756.532" cy="119.378" rx="101.012" ry="56.934" fill="#714230"/>
<path d="M659.908 220.605L706.91 148.678L662.036 134.709L659.908 220.605Z" fill="#714230"/>
<path d="M803.823 236.479L832.108 155.346L785.191 152.602L803.823 236.479Z" fill="#714230"/>
<path d="M829.581 235.215L853.436 133.162L806.438 132.998L829.581 235.215Z" fill="#714230"/>
<path d="M692.448 227.148L739.45 155.221L694.576 141.252L692.448 227.148Z" fill="#714230"/>
<line x1="664.807" y1="206.182" x2="657.461" y2="235.567" stroke="#714230" stroke-width="4"/>
<line x1="657.41" y1="234.425" x2="686.795" y2="318.908" stroke="#714230" stroke-width="4"/>
<line x1="718.998" y1="320.755" x2="689.613" y2="243.619" stroke="#714230" stroke-width="4"/>
<path d="M690.416 244.265L697.806 208.971" stroke="#714230" stroke-width="4"/>
<line x1="804.446" y1="227.659" x2="808.119" y2="323.161" stroke="#714230" stroke-width="4"/>
<line x1="830.159" y1="220.389" x2="830.159" y2="326.911" stroke="#714230" stroke-width="4"/>
<rect x="828.159" y="117.541" width="80.8095" height="47.7511" rx="10" fill="#714230"/>
<path d="M942.027 116.17C942.027 115.88 942.175 115.61 942.42 115.455L961.738 103.161C962.059 102.957 962.432 102.848 962.812 102.848H973.249H987.662C987.847 102.848 988.032 102.822 988.211 102.771L999.952 99.4169C1000.49 99.2629 1000.94 98.8897 1001.19 98.3883L1003.95 92.867C1004.27 92.225 1004.23 91.4603 1003.83 90.8632L1001.13 86.8138C1000.91 86.491 1000.61 86.2378 1000.25 86.0849L988.133 80.8914C988.006 80.8369 987.873 80.7957 987.737 80.7685L969.997 77.2204C969.719 77.1649 969.457 77.0512 969.227 76.8867L957.132 68.2476C956.861 68.0545 956.547 67.9317 956.217 67.8905L944.267 66.3967C943.076 66.2479 942.283 65.0912 942.575 63.9271L943.742 59.2555C943.822 58.937 943.822 58.6038 943.742 58.2854L942.25 52.3165C942.109 51.7501 941.727 51.2738 941.204 51.0127L939.095 49.958C938.62 49.7208 938.071 49.6818 937.568 49.8495L933.886 51.0769C933.237 51.2932 932.744 51.8258 932.578 52.4892L931.067 58.5316C931.028 58.6902 931.008 58.8531 931.008 59.0166V60.2802C931.008 61.9283 929.126 62.869 927.808 61.8802L924.195 59.1704C923.848 58.9108 923.427 58.7704 922.995 58.7704H919.222C918.553 58.7704 917.929 59.1046 917.558 59.661L915.062 63.4048C914.697 63.9528 914.625 64.6455 914.869 65.257L917.921 72.8863C918.071 73.262 918.332 73.5832 918.668 73.8076L922.649 76.461C923.271 76.8758 923.609 77.6029 923.527 78.346L921.878 93.1818C921.843 93.4996 921.732 93.8043 921.555 94.0703L919.158 97.6663C918.587 98.5224 918.759 99.672 919.555 100.324L938.181 115.563C938.296 115.657 938.421 115.738 938.553 115.804L940.801 116.928C941.364 117.209 942.027 116.8 942.027 116.17Z" fill="#714230"/>
<path d="M901.622 119.378L919.988 97.3388L942.027 115.705L931.008 134.07L919.988 152.436C919.988 152.436 915.785 159.953 912.641 162.704C909.497 165.455 902.423 165.062 902.423 165.062L901.622 119.378Z" fill="#714230"/>
<path d="M79.8846 104.105C92.4719 84.4402 121.2 84.4402 133.787 104.105L142.035 116.989C155.669 138.288 140.373 166.241 115.083 166.241H98.5885C73.2993 166.241 58.0033 138.288 71.6371 116.989L79.8846 104.105Z" fill="#714230"/>
<ellipse cx="100.793" cy="160.198" rx="83.0905" ry="46.8328" fill="#714230"/>
<path d="M21.3114 243.465L59.9744 184.3L23.0619 172.809L21.3114 243.465Z" fill="#714230"/>
<path d="M139.693 256.523L162.96 189.785L124.367 187.527L139.693 256.523Z" fill="#714230"/>
<path d="M160.881 255.483L180.504 171.537L141.845 171.402L160.881 255.483Z" fill="#714230"/>
<path d="M48.0783 248.848L86.7413 189.682L49.8288 178.191L48.0783 248.848Z" fill="#714230"/>
<line x1="25.6857" y1="231.688" x2="19.6428" y2="255.859" stroke="#714230" stroke-width="4"/>
<line x1="19.5914" y1="254.717" x2="43.7632" y2="324.211" stroke="#714230" stroke-width="4"/>
<line x1="69.5863" y1="325.974" x2="45.4145" y2="262.523" stroke="#714230" stroke-width="4"/>
<path d="M46.4065 262.928L52.4853 233.896" stroke="#714230" stroke-width="4"/>
<line x1="140.56" y1="249.254" x2="143.581" y2="327.813" stroke="#714230" stroke-width="4"/>
<line x1="161.712" y1="243.288" x2="161.712" y2="330.911" stroke="#714230" stroke-width="4"/>
<rect x="159.712" y="158.687" width="66.4724" height="39.2792" rx="10" fill="#714230"/>
<path d="M253.377 157.559C253.377 157.321 253.499 157.099 253.7 156.971L269.504 146.914C269.825 146.71 270.198 146.601 270.578 146.601H279.06H290.866C291.052 146.601 291.237 146.575 291.415 146.524L300.875 143.821C301.414 143.667 301.864 143.294 302.115 142.793L304.223 138.575C304.544 137.933 304.497 137.168 304.099 136.571L302.051 133.499C301.836 133.176 301.531 132.923 301.175 132.77L291.337 128.554C291.21 128.5 291.077 128.459 290.942 128.431L276.459 125.535C276.182 125.48 275.919 125.366 275.689 125.201L265.875 118.191C265.605 117.998 265.291 117.876 264.961 117.834L255.617 116.666C254.426 116.518 253.634 115.361 253.925 114.197L254.767 110.829C254.847 110.51 254.847 110.177 254.767 109.858L253.601 105.193C253.459 104.627 253.077 104.15 252.555 103.889L251.097 103.16C250.623 102.923 250.073 102.884 249.57 103.052L246.865 103.953C246.217 104.17 245.723 104.702 245.558 105.366L244.373 110.105C244.333 110.263 244.313 110.426 244.313 110.59V110.876C244.313 112.524 242.432 113.465 241.113 112.476L238.803 110.743C238.457 110.484 238.036 110.343 237.603 110.343H234.808C234.14 110.343 233.515 110.678 233.144 111.234L231.3 114C230.935 114.548 230.863 115.241 231.107 115.853L233.507 121.853C233.657 122.228 233.918 122.55 234.255 122.774L237.257 124.776C237.879 125.19 238.218 125.918 238.136 126.661L236.813 138.564C236.778 138.882 236.667 139.186 236.489 139.452L234.744 142.071C234.173 142.927 234.345 144.076 235.141 144.728L250.187 157.038C250.299 157.13 250.421 157.209 250.551 157.274L252.369 158.183C252.832 158.414 253.377 158.077 253.377 157.559Z" fill="#714230"/>
<path d="M220.141 160.198L235.249 142.069L253.378 157.177L244.313 172.284L235.249 187.391C235.249 187.391 231.791 193.575 229.205 195.838C226.619 198.101 220.8 197.777 220.8 197.777L220.141 160.198Z" fill="#714230"/>
<path d="M396.885 108.105C409.472 88.4402 438.2 88.4402 450.787 108.105L459.035 120.989C472.669 142.288 457.373 170.241 432.083 170.241H415.588C390.299 170.241 375.003 142.288 388.637 120.989L396.885 108.105Z" fill="#714230"/>
<ellipse cx="417.793" cy="164.198" rx="83.0905" ry="46.8328" fill="#714230"/>
<path d="M338.311 247.465L376.974 188.3L340.062 176.809L338.311 247.465Z" fill="#714230"/>
<path d="M456.693 260.523L479.96 193.785L441.367 191.527L456.693 260.523Z" fill="#714230"/>
<path d="M477.881 259.483L497.504 175.537L458.845 175.402L477.881 259.483Z" fill="#714230"/>
<path d="M365.078 252.848L403.741 193.682L366.829 182.191L365.078 252.848Z" fill="#714230"/>
<line x1="342.686" y1="235.688" x2="336.643" y2="259.859" stroke="#714230" stroke-width="4"/>
<line x1="336.591" y1="258.717" x2="360.763" y2="328.211" stroke="#714230" stroke-width="4"/>
<line x1="386.586" y1="329.974" x2="362.414" y2="266.523" stroke="#714230" stroke-width="4"/>
<path d="M363.407 266.928L369.485 237.896" stroke="#714230" stroke-width="4"/>
<line x1="457.56" y1="253.254" x2="460.581" y2="331.813" stroke="#714230" stroke-width="4"/>
<line x1="478.712" y1="247.288" x2="478.712" y2="334.911" stroke="#714230" stroke-width="4"/>
<rect x="476.712" y="162.687" width="66.4724" height="39.2792" rx="10" fill="#714230"/>
<path d="M570.377 161.559C570.377 161.321 570.499 161.099 570.7 160.971L586.504 150.914C586.825 150.71 587.198 150.601 587.578 150.601H596.06H607.866C608.052 150.601 608.237 150.575 608.415 150.524L617.875 147.821C618.414 147.667 618.864 147.294 619.115 146.793L621.223 142.575C621.544 141.933 621.497 141.168 621.099 140.571L619.051 137.499C618.836 137.176 618.531 136.923 618.175 136.77L608.337 132.554C608.21 132.5 608.077 132.459 607.942 132.431L593.459 129.535C593.182 129.48 592.919 129.366 592.689 129.201L582.875 122.191C582.605 121.998 582.291 121.876 581.961 121.834L572.617 120.666C571.426 120.518 570.634 119.361 570.925 118.197L571.767 114.829C571.847 114.51 571.847 114.177 571.767 113.858L570.601 109.193C570.459 108.627 570.077 108.15 569.555 107.889L568.097 107.16C567.623 106.923 567.073 106.884 566.57 107.052L563.865 107.953C563.217 108.17 562.723 108.702 562.558 109.366L561.373 114.105C561.333 114.263 561.313 114.426 561.313 114.59V114.876C561.313 116.524 559.432 117.465 558.113 116.476L555.803 114.743C555.457 114.484 555.036 114.343 554.603 114.343H551.808C551.14 114.343 550.515 114.678 550.144 115.234L548.3 118C547.935 118.548 547.863 119.241 548.107 119.853L550.507 125.853C550.657 126.228 550.918 126.55 551.255 126.774L554.257 128.776C554.879 129.19 555.218 129.918 555.136 130.661L553.813 142.564C553.778 142.882 553.667 143.186 553.489 143.452L551.744 146.071C551.173 146.927 551.345 148.076 552.141 148.728L567.187 161.038C567.299 161.13 567.421 161.209 567.551 161.274L569.369 162.183C569.832 162.414 570.377 162.077 570.377 161.559Z" fill="#714230"/>
<path d="M537.141 164.198L552.249 146.069L570.378 161.177L561.313 176.284L552.249 191.391C552.249 191.391 548.791 197.575 546.205 199.838C543.619 202.101 537.8 201.777 537.8 201.777L537.141 164.198Z" fill="#714230"/>
</svg>
