<svg width="166" height="162" viewBox="0 0 166 162" fill="none" xmlns="http://www.w3.org/2000/svg">
<circle cx="80.5" cy="78.5" r="64" stroke="#F6C58B" stroke-width="3"/>
<path d="M81.3622 0L98.8593 81.0888H63.865L81.3622 0Z" fill="#534141"/>
<path d="M81.3622 161.632L98.8593 80.5428H63.865L81.3622 161.632Z" fill="#534141"/>
<path d="M0 82.6951L83 65.3336V100.057L0 82.6951Z" fill="#534141"/>
<path d="M166 82.6951L83 65.3336V100.057L166 82.6951Z" fill="#534141"/>
<path d="M43.8899 39.659L87.2561 71.3193L70.4611 86.317L43.8899 39.659Z" fill="#F36648"/>
<path d="M113.16 117.231L86.5892 70.5735L69.7943 85.5711L113.16 117.231Z" fill="#F36648"/>
<path d="M40.6069 114.053L73.058 70.0711L87.9658 86.7653L40.6069 114.053Z" fill="#F36648"/>
<path d="M120.417 42.7834L73.0585 70.0711L87.9662 86.7653L120.417 42.7834Z" fill="#F36648"/>
</svg>
