<svg width="133" height="50" viewBox="0 0 133 50" fill="none" xmlns="http://www.w3.org/2000/svg">
<path d="M34.944 41.664C34.704 43.92 34.032 45.648 32.928 46.848C31.872 48.048 30.312 48.648 28.248 48.648C26.712 48.648 25.344 48.288 24.144 47.568C22.944 46.8 21.648 45.528 20.256 43.752L13.128 34.824V47.928C12.6 48.024 11.808 48.144 10.752 48.288C9.744 48.48 8.712 48.576 7.656 48.576C6.6 48.576 5.64 48.504 4.776 48.36C3.96 48.216 3.264 47.928 2.688 47.496C2.112 47.064 1.656 46.488 1.32 45.768C1.032 45 0.888 44.016 0.888 42.816V1.128C1.416 0.983997 2.184 0.839998 3.192 0.696C4.248 0.503999 5.304 0.407999 6.36 0.407999C7.416 0.407999 8.352 0.479998 9.168 0.623996C10.032 0.767997 10.752 1.056 11.328 1.488C11.904 1.92 12.336 2.52 12.624 3.288C12.96 4.008 13.128 4.968 13.128 6.168V25.176L25.512 12.504C28.008 12.504 30 13.056 31.488 14.16C33.024 15.264 33.792 16.656 33.792 18.336C33.792 19.056 33.672 19.728 33.432 20.352C33.192 20.928 32.808 21.528 32.28 22.152C31.8 22.776 31.152 23.448 30.336 24.168C29.568 24.84 28.656 25.632 27.6 26.544L23.424 30.144L34.944 41.664ZM55.7981 40.224C56.6141 40.224 57.5021 40.152 58.4621 40.008C59.4701 39.816 60.2141 39.576 60.6941 39.288V33.528L55.5101 33.96C54.1661 34.056 53.0621 34.344 52.1981 34.824C51.3341 35.304 50.9021 36.024 50.9021 36.984C50.9021 37.944 51.2621 38.736 51.9821 39.36C52.7501 39.936 54.0221 40.224 55.7981 40.224ZM55.2221 11.928C57.8141 11.928 60.1661 12.192 62.2781 12.72C64.4381 13.248 66.2621 14.064 67.7501 15.168C69.2861 16.224 70.4621 17.592 71.2781 19.272C72.0941 20.904 72.5021 22.848 72.5021 25.104V41.232C72.5021 42.48 72.1421 43.512 71.4221 44.328C70.7501 45.096 69.9341 45.768 68.9741 46.344C65.8541 48.216 61.4621 49.152 55.7981 49.152C53.2541 49.152 50.9501 48.912 48.8861 48.432C46.8701 47.952 45.1181 47.232 43.6301 46.272C42.1901 45.312 41.0621 44.088 40.2461 42.6C39.4781 41.112 39.0941 39.384 39.0941 37.416C39.0941 34.104 40.0781 31.56 42.0461 29.784C44.0141 28.008 47.0621 26.904 51.1901 26.472L60.6221 25.464V24.96C60.6221 23.568 59.9981 22.584 58.7501 22.008C57.5501 21.384 55.7981 21.072 53.4941 21.072C51.6701 21.072 49.8941 21.264 48.1661 21.648C46.4381 22.032 44.8781 22.512 43.4861 23.088C42.8621 22.656 42.3341 22.008 41.9021 21.144C41.4701 20.232 41.2541 19.296 41.2541 18.336C41.2541 17.088 41.5421 16.104 42.1181 15.384C42.7421 14.616 43.6781 13.968 44.9261 13.44C46.3181 12.912 47.9501 12.528 49.8221 12.288C51.7421 12.048 53.5421 11.928 55.2221 11.928ZM92.2262 47.928C91.7462 48.072 90.9782 48.216 89.9222 48.36C88.9142 48.504 87.8582 48.576 86.7542 48.576C85.6982 48.576 84.7382 48.504 83.8742 48.36C83.0582 48.216 82.3622 47.928 81.7862 47.496C81.2102 47.064 80.7542 46.488 80.4182 45.768C80.1302 45 79.9862 44.016 79.9862 42.816V21.216C79.9862 20.112 80.1782 19.176 80.5622 18.408C80.9942 17.592 81.5942 16.872 82.3622 16.248C83.1302 15.624 84.0662 15.072 85.1702 14.592C86.3222 14.064 87.5462 13.608 88.8422 13.224C90.1382 12.84 91.4822 12.552 92.8742 12.36C94.2662 12.12 95.6582 12 97.0502 12C99.3542 12 101.178 12.456 102.522 13.368C103.866 14.232 104.538 15.672 104.538 17.688C104.538 18.36 104.442 19.032 104.25 19.704C104.058 20.328 103.818 20.904 103.53 21.432C102.522 21.432 101.49 21.48 100.434 21.576C99.3782 21.672 98.3462 21.816 97.3382 22.008C96.3302 22.2 95.3702 22.416 94.4582 22.656C93.5942 22.848 92.8502 23.088 92.2262 23.376V47.928ZM121.828 35.976C121.828 37.224 122.212 38.112 122.98 38.64C123.796 39.168 124.924 39.432 126.364 39.432C127.084 39.432 127.828 39.384 128.596 39.288C129.364 39.144 130.036 38.976 130.612 38.784C131.044 39.312 131.404 39.912 131.692 40.584C132.028 41.208 132.196 41.976 132.196 42.888C132.196 44.712 131.5 46.2 130.108 47.352C128.764 48.504 126.364 49.08 122.908 49.08C118.684 49.08 115.42 48.12 113.116 46.2C110.86 44.28 109.732 41.16 109.732 36.84V6.024C110.26 5.88 111.004 5.736 111.964 5.592C112.972 5.4 114.028 5.304 115.132 5.304C117.244 5.304 118.876 5.688 120.028 6.456C121.228 7.176 121.828 8.736 121.828 11.136V15.744H131.26C131.548 16.272 131.812 16.944 132.052 17.76C132.34 18.528 132.484 19.392 132.484 20.352C132.484 22.032 132.1 23.256 131.332 24.024C130.612 24.744 129.628 25.104 128.38 25.104H121.828V35.976Z" fill="#F6C58B"/>
</svg>
