<svg width="148" height="191" viewBox="0 0 148 191" fill="none" xmlns="http://www.w3.org/2000/svg">
<path d="M42.9678 27.5C42.9678 12.3122 55.2799 0 70.4678 0H81.2455C96.4333 0 108.745 12.3122 108.745 27.5V94.4228L101.491 172.093C100.567 181.981 90.9962 188.681 81.3893 186.165C78.8026 185.487 76.0878 185.465 73.4904 186.1L73.109 186.193C62.7588 188.723 52.5446 181.572 51.3807 170.981L42.9678 94.4228V27.5Z" fill="#E7DB4D"/>
<path d="M37.9573 98.2094C33.7617 97.2158 30.6755 93.6448 30.2999 89.3496L27.5149 57.4924C26.9893 51.4803 21.2984 47.3001 15.4043 48.5968L8.24461 50.172C3.48314 51.2195 0.171036 55.548 0.404709 60.4177L1.9035 91.6523C1.94109 92.4358 2.07072 93.2121 2.28973 93.9653L5.83044 106.142C6.51677 108.502 8.04834 110.527 10.1327 111.829L17.1953 116.243C18.7846 117.237 20.6211 117.763 22.4953 117.763H41.9041C46.9755 117.763 51.0867 113.652 51.0867 108.581C51.0867 104.325 48.1619 100.626 44.0203 99.6454L37.9573 98.2094Z" fill="#E7DB4D"/>
<path d="M113.156 80.8996C117.453 80.0387 120.688 76.481 121.139 72.1224L123.201 52.1643C123.801 46.353 129.234 42.2918 134.978 43.3609L139.348 44.1744C144.295 45.0952 147.787 49.5482 147.502 54.5718L146.329 75.2679C146.277 76.1825 146.099 77.0856 145.802 77.9519L143.128 85.731C142.302 88.1342 140.592 90.1329 138.346 91.3208L132.667 94.3238C131.227 95.0855 129.622 95.4837 127.992 95.4837H109.209C105.438 95.4837 102.381 92.4264 102.381 88.655C102.381 85.4009 104.677 82.5989 107.868 81.9595L113.156 80.8996Z" fill="#E7DB4D"/>
</svg>
