<svg width="1440" height="461" viewBox="0 0 1440 461" fill="none" xmlns="http://www.w3.org/2000/svg">
<path d="M-1 92.4656V463L1440 459.5V15.4585C1393.74 44.2945 1275.16 86.3651 1170.94 23.9593C1040.67 -54.048 698.456 79.9644 609.271 119.968C520.085 159.972 381.797 110.467 253.53 79.9644C150.916 55.5622 41.0876 78.1309 -1 92.4656Z" fill="#D4AC90"/>
<path d="M342.238 265.7C160.112 249.683 7.5059 126.2 -1 120V461H1440V124.133C1368.45 147.211 1192.13 191.093 1059.24 182C893.12 170.633 862.599 120 732.009 162.883C601.418 205.767 524.365 281.717 342.238 265.7Z" fill="#D19665"/>
</svg>
