<svg width="1440" height="461" viewBox="0 0 1440 461" fill="none" xmlns="http://www.w3.org/2000/svg">
<path d="M-1 92.4656V463L1440 459.5V15.4585C1393.74 44.2945 1275.16 86.3651 1170.94 23.9593C1040.67 -54.048 698.456 79.9644 609.271 119.968C520.085 159.972 381.797 110.467 253.53 79.9644C150.916 55.5622 41.0876 78.1309 -1 92.4656Z" fill="#D4AC90"/>
<path d="M342.238 265.7C160.112 249.683 7.5059 126.2 -1 120V461H1440V124.133C1368.45 147.211 1192.13 191.093 1059.24 182C893.12 170.633 862.599 120 732.009 162.883C601.418 205.767 524.365 281.717 342.238 265.7Z" fill="#D19665"/>
<path d="M1113.93 186.105C1126.51 166.44 1155.24 166.44 1167.83 186.105L1190.47 221.472C1204.1 242.772 1188.81 270.724 1163.52 270.724H1118.24C1092.95 270.724 1077.65 242.772 1091.29 221.472L1113.93 186.105Z" fill="#714230"/>
<ellipse cx="1133.53" cy="263.378" rx="101.012" ry="56.934" fill="#714230"/>
<path d="M1036.91 364.605L1083.91 292.678L1039.04 278.709L1036.91 364.605Z" fill="#714230"/>
<path d="M1180.82 380.479L1209.11 299.346L1162.19 296.602L1180.82 380.479Z" fill="#714230"/>
<path d="M1206.58 379.215L1230.44 277.162L1183.44 276.998L1206.58 379.215Z" fill="#714230"/>
<path d="M1069.45 371.148L1116.45 299.221L1071.58 285.252L1069.45 371.148Z" fill="#714230"/>
<line x1="1041.81" y1="350.182" x2="1034.46" y2="379.567" stroke="#714230" stroke-width="4"/>
<line x1="1034.41" y1="378.425" x2="1063.79" y2="462.908" stroke="#714230" stroke-width="4"/>
<line x1="1096" y1="464.755" x2="1066.61" y2="387.619" stroke="#714230" stroke-width="4"/>
<path d="M1067.42 388.265L1074.81 352.971" stroke="#714230" stroke-width="4"/>
<line x1="1181.45" y1="371.659" x2="1185.12" y2="467.161" stroke="#714230" stroke-width="4"/>
<line x1="1207.16" y1="364.389" x2="1207.16" y2="470.911" stroke="#714230" stroke-width="4"/>
<rect x="1205.16" y="261.541" width="80.8095" height="47.7511" rx="10" fill="#714230"/>
<path d="M1319.03 260.17C1319.03 259.88 1319.18 259.61 1319.42 259.455L1338.74 247.161C1339.06 246.957 1339.43 246.848 1339.81 246.848H1350.25H1364.66C1364.85 246.848 1365.03 246.822 1365.21 246.771L1376.95 243.417C1377.49 243.263 1377.94 242.89 1378.19 242.388L1380.95 236.867C1381.27 236.225 1381.23 235.46 1380.83 234.863L1378.13 230.814C1377.91 230.491 1377.61 230.238 1377.25 230.085L1365.13 224.891C1365.01 224.837 1364.87 224.796 1364.74 224.769L1347 221.22C1346.72 221.165 1346.46 221.051 1346.23 220.887L1334.13 212.248C1333.86 212.054 1333.55 211.932 1333.22 211.891L1321.27 210.397C1320.08 210.248 1319.28 209.091 1319.57 207.927L1320.74 203.255C1320.82 202.937 1320.82 202.604 1320.74 202.285L1319.25 196.317C1319.11 195.75 1318.73 195.274 1318.2 195.013L1316.09 193.958C1315.62 193.721 1315.07 193.682 1314.57 193.849L1310.89 195.077C1310.24 195.293 1309.74 195.826 1309.58 196.489L1308.07 202.532C1308.03 202.69 1308.01 202.853 1308.01 203.017V204.28C1308.01 205.928 1306.13 206.869 1304.81 205.88L1301.19 203.17C1300.85 202.911 1300.43 202.77 1299.99 202.77H1296.22C1295.55 202.77 1294.93 203.105 1294.56 203.661L1292.06 207.405C1291.7 207.953 1291.62 208.645 1291.87 209.257L1294.92 216.886C1295.07 217.262 1295.33 217.583 1295.67 217.808L1299.65 220.461C1300.27 220.876 1300.61 221.603 1300.53 222.346L1298.88 237.182C1298.84 237.5 1298.73 237.804 1298.55 238.07L1296.16 241.666C1295.59 242.522 1295.76 243.672 1296.56 244.324L1315.18 259.563C1315.3 259.657 1315.42 259.738 1315.55 259.804L1317.8 260.928C1318.36 261.209 1319.03 260.8 1319.03 260.17Z" fill="#714230"/>
<path d="M1278.62 263.378L1296.99 241.339L1319.03 259.705L1308.01 278.07L1296.99 296.436C1296.99 296.436 1292.79 303.953 1289.64 306.704C1286.5 309.455 1279.42 309.062 1279.42 309.062L1278.62 263.378Z" fill="#714230"/>
<path d="M456.885 248.105C469.472 228.44 498.2 228.44 510.787 248.105L519.035 260.989C532.669 282.288 517.373 310.241 492.083 310.241H475.588C450.299 310.241 435.003 282.288 448.637 260.989L456.885 248.105Z" fill="#714230"/>
<ellipse cx="477.793" cy="304.198" rx="83.0905" ry="46.8328" fill="#714230"/>
<path d="M398.311 387.465L436.974 328.3L400.062 316.809L398.311 387.465Z" fill="#714230"/>
<path d="M516.693 400.523L539.96 333.785L501.367 331.527L516.693 400.523Z" fill="#714230"/>
<path d="M537.881 399.483L557.504 315.537L518.845 315.402L537.881 399.483Z" fill="#714230"/>
<path d="M425.078 392.848L463.741 333.682L426.829 322.191L425.078 392.848Z" fill="#714230"/>
<line x1="402.686" y1="375.688" x2="396.643" y2="399.859" stroke="#714230" stroke-width="4"/>
<line x1="396.591" y1="398.717" x2="420.763" y2="468.211" stroke="#714230" stroke-width="4"/>
<line x1="446.586" y1="469.974" x2="422.414" y2="406.523" stroke="#714230" stroke-width="4"/>
<path d="M423.407 406.928L429.485 377.896" stroke="#714230" stroke-width="4"/>
<line x1="517.56" y1="393.254" x2="520.581" y2="471.813" stroke="#714230" stroke-width="4"/>
<line x1="538.712" y1="387.288" x2="538.712" y2="474.911" stroke="#714230" stroke-width="4"/>
<rect x="536.712" y="302.687" width="66.4724" height="39.2792" rx="10" fill="#714230"/>
<path d="M630.377 301.559C630.377 301.321 630.499 301.099 630.7 300.971L646.504 290.914C646.825 290.71 647.198 290.601 647.578 290.601H656.06H667.866C668.052 290.601 668.237 290.575 668.415 290.524L677.875 287.821C678.414 287.667 678.864 287.294 679.115 286.793L681.223 282.575C681.544 281.933 681.497 281.168 681.099 280.571L679.051 277.499C678.836 277.176 678.531 276.923 678.175 276.77L668.337 272.554C668.21 272.5 668.077 272.459 667.942 272.431L653.459 269.535C653.182 269.48 652.919 269.366 652.689 269.201L642.875 262.191C642.605 261.998 642.291 261.876 641.961 261.834L632.617 260.666C631.426 260.518 630.634 259.361 630.925 258.197L631.767 254.829C631.847 254.51 631.847 254.177 631.767 253.858L630.601 249.193C630.459 248.627 630.077 248.15 629.555 247.889L628.097 247.16C627.623 246.923 627.073 246.884 626.57 247.052L623.865 247.953C623.217 248.17 622.723 248.702 622.558 249.366L621.373 254.105C621.333 254.263 621.313 254.426 621.313 254.59V254.876C621.313 256.524 619.432 257.465 618.113 256.476L615.803 254.743C615.457 254.484 615.036 254.343 614.603 254.343H611.808C611.14 254.343 610.515 254.678 610.144 255.234L608.3 258C607.935 258.548 607.863 259.241 608.107 259.853L610.507 265.853C610.657 266.228 610.918 266.55 611.255 266.774L614.257 268.776C614.879 269.19 615.218 269.918 615.136 270.661L613.813 282.564C613.778 282.882 613.667 283.186 613.489 283.452L611.744 286.071C611.173 286.927 611.345 288.076 612.141 288.728L627.187 301.038C627.299 301.13 627.421 301.209 627.551 301.274L629.369 302.183C629.832 302.414 630.377 302.077 630.377 301.559Z" fill="#714230"/>
<path d="M597.141 304.198L612.249 286.069L630.378 301.177L621.313 316.284L612.249 331.391C612.249 331.391 608.791 337.575 606.205 339.838C603.619 342.101 597.8 341.777 597.8 341.777L597.141 304.198Z" fill="#714230"/>
<path d="M773.885 252.105C786.472 232.44 815.2 232.44 827.787 252.105L836.035 264.989C849.669 286.288 834.373 314.241 809.083 314.241H792.588C767.299 314.241 752.003 286.288 765.637 264.989L773.885 252.105Z" fill="#714230"/>
<ellipse cx="794.793" cy="308.198" rx="83.0905" ry="46.8328" fill="#714230"/>
<path d="M715.311 391.465L753.974 332.3L717.062 320.809L715.311 391.465Z" fill="#714230"/>
<path d="M833.693 404.523L856.96 337.785L818.367 335.527L833.693 404.523Z" fill="#714230"/>
<path d="M854.881 403.483L874.504 319.537L835.845 319.402L854.881 403.483Z" fill="#714230"/>
<path d="M742.078 396.848L780.741 337.682L743.829 326.191L742.078 396.848Z" fill="#714230"/>
<line x1="719.686" y1="379.688" x2="713.643" y2="403.859" stroke="#714230" stroke-width="4"/>
<line x1="713.591" y1="402.717" x2="737.763" y2="472.211" stroke="#714230" stroke-width="4"/>
<line x1="763.586" y1="473.974" x2="739.414" y2="410.523" stroke="#714230" stroke-width="4"/>
<path d="M740.407 410.928L746.485 381.896" stroke="#714230" stroke-width="4"/>
<line x1="834.56" y1="397.254" x2="837.581" y2="475.813" stroke="#714230" stroke-width="4"/>
<line x1="855.712" y1="391.288" x2="855.712" y2="478.911" stroke="#714230" stroke-width="4"/>
<rect x="853.712" y="306.687" width="66.4724" height="39.2792" rx="10" fill="#714230"/>
<path d="M947.377 305.559C947.377 305.321 947.499 305.099 947.7 304.971L963.504 294.914C963.825 294.71 964.198 294.601 964.578 294.601H973.06H984.866C985.052 294.601 985.237 294.575 985.415 294.524L994.875 291.821C995.414 291.667 995.864 291.294 996.115 290.793L998.223 286.575C998.544 285.933 998.497 285.168 998.099 284.571L996.051 281.499C995.836 281.176 995.531 280.923 995.175 280.77L985.337 276.554C985.21 276.5 985.077 276.459 984.942 276.431L970.459 273.535C970.182 273.48 969.919 273.366 969.689 273.201L959.875 266.191C959.605 265.998 959.291 265.876 958.961 265.834L949.617 264.666C948.426 264.518 947.634 263.361 947.925 262.197L948.767 258.829C948.847 258.51 948.847 258.177 948.767 257.858L947.601 253.193C947.459 252.627 947.077 252.15 946.555 251.889L945.097 251.16C944.623 250.923 944.073 250.884 943.57 251.052L940.865 251.953C940.217 252.17 939.723 252.702 939.558 253.366L938.373 258.105C938.333 258.263 938.313 258.426 938.313 258.59V258.876C938.313 260.524 936.432 261.465 935.113 260.476L932.803 258.743C932.457 258.484 932.036 258.343 931.603 258.343H928.808C928.14 258.343 927.515 258.678 927.144 259.234L925.3 262C924.935 262.548 924.863 263.241 925.107 263.853L927.507 269.853C927.657 270.228 927.918 270.55 928.255 270.774L931.257 272.776C931.879 273.19 932.218 273.918 932.136 274.661L930.813 286.564C930.778 286.882 930.667 287.186 930.489 287.452L928.744 290.071C928.173 290.927 928.345 292.076 929.141 292.728L944.187 305.038C944.299 305.13 944.421 305.209 944.551 305.274L946.369 306.183C946.832 306.414 947.377 306.077 947.377 305.559Z" fill="#714230"/>
<path d="M914.141 308.198L929.249 290.069L947.378 305.177L938.313 320.284L929.249 335.391C929.249 335.391 925.791 341.575 923.205 343.838C920.619 346.101 914.8 345.777 914.8 345.777L914.141 308.198Z" fill="#714230"/>
</svg>
