<svg width="157" height="65" viewBox="0 0 157 65" fill="none" xmlns="http://www.w3.org/2000/svg">
<path d="M17.52 15.928C19.488 15.928 21.408 16.216 23.28 16.792C25.2 17.32 26.856 18.136 28.248 19.24C29.688 18.28 31.296 17.488 33.072 16.864C34.896 16.24 37.08 15.928 39.624 15.928C41.448 15.928 43.224 16.168 44.952 16.648C46.728 17.128 48.288 17.896 49.632 18.952C51.024 19.96 52.128 21.328 52.944 23.056C53.76 24.736 54.168 26.8 54.168 29.248V51.928C53.688 52.072 52.92 52.216 51.864 52.36C50.856 52.504 49.8 52.576 48.696 52.576C47.64 52.576 46.68 52.504 45.816 52.36C45 52.216 44.304 51.928 43.728 51.496C43.152 51.064 42.696 50.488 42.36 49.768C42.072 49 41.928 48.016 41.928 46.816V29.608C41.928 28.168 41.52 27.136 40.704 26.512C39.888 25.84 38.784 25.504 37.392 25.504C36.72 25.504 36 25.672 35.232 26.008C34.464 26.296 33.888 26.608 33.504 26.944C33.552 27.136 33.576 27.328 33.576 27.52C33.576 27.664 33.576 27.808 33.576 27.952V51.928C33.048 52.072 32.256 52.216 31.2 52.36C30.192 52.504 29.16 52.576 28.104 52.576C27.048 52.576 26.088 52.504 25.224 52.36C24.408 52.216 23.712 51.928 23.136 51.496C22.56 51.064 22.104 50.488 21.768 49.768C21.48 49 21.336 48.016 21.336 46.816V29.608C21.336 28.168 20.88 27.136 19.968 26.512C19.104 25.84 18.048 25.504 16.8 25.504C15.936 25.504 15.192 25.648 14.568 25.936C13.944 26.176 13.416 26.416 12.984 26.656V51.928C12.504 52.072 11.736 52.216 10.68 52.36C9.672 52.504 8.616 52.576 7.512 52.576C6.456 52.576 5.496 52.504 4.632 52.36C3.816 52.216 3.12 51.928 2.544 51.496C1.968 51.064 1.512 50.488 1.176 49.768C0.888 49 0.744 48.016 0.744 46.816V25.072C0.744 23.776 1.008 22.744 1.536 21.976C2.112 21.208 2.88 20.488 3.84 19.816C5.472 18.664 7.488 17.728 9.888 17.008C12.336 16.288 14.88 15.928 17.52 15.928ZM76.6106 44.224C77.4266 44.224 78.3146 44.152 79.2746 44.008C80.2826 43.816 81.0266 43.576 81.5066 43.288V37.528L76.3226 37.96C74.9786 38.056 73.8746 38.344 73.0106 38.824C72.1466 39.304 71.7146 40.024 71.7146 40.984C71.7146 41.944 72.0746 42.736 72.7946 43.36C73.5626 43.936 74.8346 44.224 76.6106 44.224ZM76.0346 15.928C78.6266 15.928 80.9786 16.192 83.0906 16.72C85.2506 17.248 87.0746 18.064 88.5626 19.168C90.0986 20.224 91.2746 21.592 92.0906 23.272C92.9066 24.904 93.3146 26.848 93.3146 29.104V45.232C93.3146 46.48 92.9546 47.512 92.2346 48.328C91.5626 49.096 90.7466 49.768 89.7866 50.344C86.6666 52.216 82.2746 53.152 76.6106 53.152C74.0666 53.152 71.7626 52.912 69.6986 52.432C67.6826 51.952 65.9306 51.232 64.4426 50.272C63.0026 49.312 61.8746 48.088 61.0586 46.6C60.2906 45.112 59.9066 43.384 59.9066 41.416C59.9066 38.104 60.8906 35.56 62.8586 33.784C64.8266 32.008 67.8746 30.904 72.0026 30.472L81.4346 29.464V28.96C81.4346 27.568 80.8106 26.584 79.5626 26.008C78.3626 25.384 76.6106 25.072 74.3066 25.072C72.4826 25.072 70.7066 25.264 68.9786 25.648C67.2506 26.032 65.6906 26.512 64.2986 27.088C63.6746 26.656 63.1466 26.008 62.7146 25.144C62.2826 24.232 62.0666 23.296 62.0666 22.336C62.0666 21.088 62.3546 20.104 62.9306 19.384C63.5546 18.616 64.4906 17.968 65.7386 17.44C67.1306 16.912 68.7626 16.528 70.6346 16.288C72.5546 16.048 74.3546 15.928 76.0346 15.928ZM116.855 15.928C119.735 15.928 122.399 16.312 124.847 17.08C127.343 17.8 129.479 18.928 131.255 20.464C133.031 22 134.423 23.944 135.431 26.296C136.439 28.6 136.943 31.36 136.943 34.576C136.943 37.648 136.511 40.336 135.647 42.64C134.783 44.944 133.559 46.888 131.975 48.472C130.391 50.008 128.471 51.16 126.215 51.928C124.007 52.696 121.535 53.08 118.799 53.08C116.735 53.08 114.815 52.768 113.039 52.144V64.096C112.559 64.24 111.791 64.384 110.735 64.528C109.679 64.72 108.599 64.816 107.495 64.816C106.439 64.816 105.479 64.744 104.615 64.6C103.799 64.456 103.103 64.168 102.527 63.736C101.951 63.304 101.519 62.704 101.231 61.936C100.943 61.216 100.799 60.256 100.799 59.056V24.496C100.799 23.2 101.063 22.144 101.591 21.328C102.167 20.512 102.935 19.768 103.895 19.096C105.383 18.136 107.231 17.368 109.439 16.792C111.647 16.216 114.119 15.928 116.855 15.928ZM116.999 43.432C121.943 43.432 124.415 40.48 124.415 34.576C124.415 31.504 123.791 29.224 122.543 27.736C121.343 26.248 119.591 25.504 117.287 25.504C116.375 25.504 115.559 25.624 114.839 25.864C114.119 26.056 113.495 26.296 112.967 26.584V42.424C113.543 42.712 114.167 42.952 114.839 43.144C115.511 43.336 116.231 43.432 116.999 43.432ZM142.628 7.288C142.628 5.464 143.228 3.928 144.428 2.68C145.676 1.432 147.308 0.807998 149.324 0.807998C151.34 0.807998 152.948 1.432 154.148 2.68C155.396 3.928 156.02 5.464 156.02 7.288C156.02 9.112 155.396 10.648 154.148 11.896C152.948 13.144 151.34 13.768 149.324 13.768C147.308 13.768 145.676 13.144 144.428 11.896C143.228 10.648 142.628 9.112 142.628 7.288ZM155.444 51.928C154.916 52.024 154.124 52.144 153.068 52.288C152.06 52.48 151.028 52.576 149.972 52.576C148.916 52.576 147.956 52.504 147.092 52.36C146.276 52.216 145.58 51.928 145.004 51.496C144.428 51.064 143.972 50.488 143.636 49.768C143.348 49 143.204 48.016 143.204 46.816V17.512C143.732 17.416 144.5 17.296 145.508 17.152C146.564 16.96 147.62 16.864 148.676 16.864C149.732 16.864 150.668 16.936 151.484 17.08C152.348 17.224 153.068 17.512 153.644 17.944C154.22 18.376 154.652 18.976 154.94 19.744C155.276 20.464 155.444 21.424 155.444 22.624V51.928Z" fill="#F6C58B"/>
</svg>
