<svg width="1081" height="825" viewBox="0 0 1081 825" fill="none" xmlns="http://www.w3.org/2000/svg">
<path d="M275.98 70.6661H121.278H0.954895V759.183C0.954895 813.424 34.6964 825.074 51.5671 824.119H267.385L311.313 740.084L343.781 824.119H581.563L605.436 782.102L618.806 824.119H804.065L854.677 777.327L903.38 824.119H1013.2C1060.56 824.119 1077.5 780.828 1080.04 759.183L1078.14 70.6661H870.912C861.362 84.0353 841.499 110.774 838.443 110.774C835.388 110.774 819.344 84.0353 811.705 70.6661H522.356C515.671 82.4438 501.729 106.954 499.437 110.774C497.145 114.594 474.927 85.6269 464.104 70.6661H317.042L296.034 95.4947L275.98 70.6661Z" fill="#F6C58B"/>
<path d="M1016.07 791.651V712.391C997.294 712.391 959.924 719.648 960.688 748.678C961.643 784.966 989.336 795.471 1001.75 798.336C1011.68 800.628 1015.44 794.834 1016.07 791.651Z" fill="#F8DAA2"/>
<path d="M64.9365 800.246V720.985C83.7171 720.985 121.087 728.243 120.323 757.273C119.368 793.561 91.675 804.065 79.2607 806.93C69.3292 809.222 65.5731 803.429 64.9365 800.246Z" fill="#F8DAA2"/>
<path d="M26.7385 17.1891C12.9873 19.481 3.18316 38.5163 0 47.7474L1.90989 757.273C9.54947 748.36 25.0196 730.343 25.7836 729.58C26.7385 728.625 42.0177 686.607 42.9726 684.697C43.9276 682.787 47.7474 719.075 49.6572 720.985C95.4947 714.873 115.867 742.63 120.323 757.273V47.7474C107.336 10.3135 71.621 4.77482 55.3869 6.68472L44.8825 47.7474L26.7385 17.1891Z" fill="#CDA16D"/>
<path d="M1054.26 10.8318C1068.01 13.1237 1077.82 32.1589 1081 41.3901L1079.09 750.916C1071.45 742.003 1055.98 723.986 1055.22 723.222C1054.26 722.267 1038.98 680.25 1038.03 678.34C1037.07 676.43 1033.25 712.718 1031.34 714.628C985.505 708.516 965.133 736.273 960.677 750.916V41.3901C973.664 3.95617 1009.38 -1.58252 1025.61 0.327372L1036.12 41.3901L1054.26 10.8318Z" fill="#CDA16D"/>
<path d="M304.567 353.202C296.282 353.202 289.566 359.917 289.566 368.202V418.841C289.566 422.223 288.424 425.506 286.324 428.156L250.631 473.206C249.062 475.187 247.018 476.739 244.688 477.718L166.619 510.55C163.406 511.901 160.763 514.33 159.146 517.418L144.781 544.847C141.901 550.346 142.707 557.053 146.808 561.714L157.168 573.489C160.016 576.726 164.118 578.581 168.43 578.581H220.539C222.584 578.581 224.608 578.999 226.485 579.81L355.733 635.611C358.768 636.922 362.151 637.193 365.357 636.382L441.529 617.116C444.455 616.376 447.537 616.536 450.371 617.576L504.016 637.25C504.711 637.504 505.424 637.708 506.149 637.857L565.552 650.117C566.549 650.323 567.565 650.427 568.584 650.427H640C643.114 650.427 646.151 651.396 648.689 653.2L676.13 672.701C679.942 675.41 684.799 676.186 689.266 674.8L761.722 652.309C765.598 651.106 768.821 648.384 770.656 644.764L802.232 582.451C803.513 579.923 805.484 577.809 807.917 576.355L883.284 531.31C884.344 530.676 885.322 529.914 886.196 529.04L932.846 482.38C936.652 478.574 938.126 473.021 936.71 467.829L910.483 371.643C909.825 369.229 908.573 367.018 906.843 365.211L842.478 298.035C841.884 297.415 841.237 296.847 840.546 296.337L807.622 272.073C805.381 270.42 803.643 268.177 802.604 265.593L778.71 206.169C774.149 194.825 758.661 193.411 752.12 203.74L733.674 232.871C731.572 236.191 728.251 238.554 724.425 239.451L678.995 250.1C672.214 251.69 667.419 257.739 667.419 264.705V282.103C667.419 290.387 660.703 297.103 652.419 297.103H598.757C593.708 297.103 588.997 294.563 586.223 290.344L522.437 193.335C520.141 189.843 516.493 187.467 512.371 186.78L479.791 181.349C471.9 180.033 464.366 185.142 462.667 192.959L447.425 263.085C446.531 267.201 443.947 270.751 440.305 272.868L375.496 310.534C373.981 311.415 372.632 312.555 371.51 313.901L343.264 347.803C340.414 351.224 336.192 353.202 331.739 353.202H304.567Z" fill="#D49E65"/>
<path d="M734.603 327.463C736.168 324.946 739.832 324.946 741.397 327.463L794.822 413.388C796.478 416.052 794.562 419.5 791.425 419.5H684.575C681.438 419.5 679.522 416.052 681.178 413.388L734.603 327.463Z" fill="#EDAC5F"/>
<path d="M774.592 343.547C776.153 341.005 779.847 341.005 781.408 343.547L824.485 413.656C826.123 416.321 824.205 419.75 821.077 419.75H734.923C731.795 419.75 729.877 416.321 731.515 413.656L774.592 343.547Z" fill="#EDAC5F"/>
<path d="M683.108 352.428C684.675 349.921 688.325 349.921 689.892 352.428L728.142 413.63C729.807 416.294 727.891 419.75 724.75 419.75H648.25C645.109 419.75 643.193 416.294 644.858 413.63L683.108 352.428Z" fill="#EDAC5F"/>
<path d="M358.666 454.445C374.494 446.714 398.896 459.152 409.118 466.338C415.713 471.789 426.627 485.615 417.526 497.31C406.15 511.929 419.752 528.53 419.999 537.945C420.247 547.361 402.688 557.272 380.677 563.962C358.666 570.652 328 543.396 328 528.53C328 513.663 341.849 509.699 346.301 497.31C350.753 484.921 338.882 464.108 358.666 454.445Z" fill="#A4E2E3" stroke="#A4E2E3"/>
<path d="M445.373 391.565L443 415H480.492L496.153 410.696L527 404.957L523.203 381.522V333.696L513.712 327L502.797 329.391V333.696H499.949L496.153 343.261L484.288 347.565L480.492 352.826L477.644 359.043L472.898 339.435L468.627 347.565L466.254 361.913H462.458L460.559 356.652L455.814 359.043H452.966V366.696H451.068L445.373 391.565Z" fill="#EDAC5F"/>
<path d="M541.12 400.625L543 419H513.299L500.893 415.625H476L479.463 392.75V355.25L486.983 350L495.63 351.875V355.25H497.885L500.893 362.75L510.292 366.125L513.299 370.25L515.555 375.125L519.315 359.75L522.698 366.125L524.578 377.375H527.586L529.09 373.25L532.849 375.125H535.105V381.125H536.609L541.12 400.625Z" fill="#EDAC5F"/>
<path d="M517.961 497.579C519.927 494.506 524.416 494.506 526.383 497.579L532.967 507.865C535.097 511.193 532.707 515.56 528.756 515.56H515.588C511.636 515.56 509.246 511.193 511.377 507.865L517.961 497.579Z" fill="#BD5B41"/>
<ellipse cx="520.748" cy="514.137" rx="19.5771" ry="11.0343" fill="#BD5B41"/>
<path d="M502.021 533.755L511.131 519.815L502.434 517.108L502.021 533.755Z" fill="#BD5B41"/>
<path d="M529.913 536.832L535.395 521.108L526.302 520.576L529.913 536.832Z" fill="#BD5B41"/>
<path d="M534.905 536.587L539.529 516.808L530.42 516.776L534.905 536.587Z" fill="#BD5B41"/>
<path d="M508.328 535.023L517.437 521.083L508.74 518.376L508.328 535.023Z" fill="#BD5B41"/>
<line x1="503.08" y1="530.987" x2="501.656" y2="536.682" stroke="#B95B40"/>
<line x1="501.643" y1="536.397" x2="507.338" y2="552.77" stroke="#B95B40"/>
<line x1="513.518" y1="553.113" x2="507.823" y2="538.163" stroke="#B95B40"/>
<path d="M507.934 538.341L509.366 531.501" stroke="#B95B40"/>
<line x1="530.146" y1="535.118" x2="530.858" y2="553.627" stroke="#B95B40"/>
<line x1="535.13" y1="533.714" x2="535.13" y2="554.359" stroke="#B95B40"/>
<rect x="534.63" y="513.781" width="15.6617" height="9.25462" rx="2" fill="#BD5B41"/>
<path d="M556.699 513.515C556.699 513.459 556.727 513.406 556.775 513.376L560.123 511.246C560.444 511.041 560.816 510.933 561.196 510.933H562.75H565.317C565.503 510.933 565.688 510.907 565.867 510.856L567.429 510.41C567.849 510.29 568.2 509.998 568.396 509.607L568.421 509.556C568.656 509.087 568.621 508.528 568.33 508.091V508.091C568.173 507.855 567.95 507.67 567.689 507.558L565.789 506.744C565.661 506.689 565.529 506.648 565.393 506.621L562.459 506.034C562.181 505.978 561.919 505.865 561.688 505.7L559.958 504.464C559.688 504.271 559.373 504.148 559.044 504.107L557.891 503.963C557.257 503.884 556.835 503.268 556.99 502.648V502.648C557.032 502.479 557.032 502.302 556.99 502.132L556.8 501.373C556.736 501.115 556.562 500.898 556.324 500.779V500.779C556.108 500.671 555.858 500.653 555.629 500.73L555.527 500.764C555.148 500.89 554.86 501.201 554.763 501.589L554.578 502.33C554.568 502.37 554.563 502.411 554.563 502.452V502.452C554.563 502.867 554.09 503.103 553.758 502.855L553.343 502.543C553.21 502.444 553.05 502.39 552.885 502.39H552.718C552.314 502.39 551.937 502.592 551.712 502.929V502.929C551.491 503.26 551.448 503.679 551.596 504.049L551.91 504.835C552.015 505.097 552.197 505.322 552.432 505.478V505.478C552.866 505.768 553.103 506.276 553.045 506.794L552.813 508.883C552.793 509.061 552.732 509.231 552.633 509.379V509.379C552.314 509.857 552.41 510.498 552.854 510.862L555.947 513.392C555.973 513.414 556.002 513.432 556.033 513.448L556.461 513.662C556.57 513.716 556.699 513.637 556.699 513.515V513.515Z" fill="#BD5B41"/>
<path d="M548.868 514.137L552.427 509.865L556.699 513.425L554.563 516.984L552.427 520.544L551.003 521.967L549.224 523.035L548.868 514.137Z" fill="#BD5B41"/>
<path d="M562.72 523.579C564.687 520.506 569.176 520.506 571.142 523.579L573.829 527.776C575.959 531.104 573.569 535.471 569.618 535.471H564.245C560.293 535.471 557.903 531.104 560.034 527.776L562.72 523.579Z" fill="#BD5B41"/>
<ellipse cx="565.86" cy="534.401" rx="14.7235" ry="8.29873" fill="#BD5B41"/>
<path d="M551.776 549.155L558.627 538.671L552.087 536.635L551.776 549.155Z" fill="#BD5B41"/>
<path d="M572.753 551.469L576.876 539.643L570.038 539.243L572.753 551.469Z" fill="#BD5B41"/>
<path d="M576.508 551.285L579.985 536.41L573.135 536.386L576.508 551.285Z" fill="#BD5B41"/>
<path d="M556.519 550.109L563.37 539.625L556.83 537.589L556.519 550.109Z" fill="#BD5B41"/>
<line x1="552.693" y1="547.104" x2="551.622" y2="551.387" stroke="#B95B40"/>
<line x1="551.609" y1="551.101" x2="555.892" y2="563.416" stroke="#B95B40"/>
<line x1="560.307" y1="563.758" x2="556.024" y2="552.515" stroke="#B95B40"/>
<path d="M556.223 552.604L557.3 547.46" stroke="#B95B40"/>
<line x1="573.052" y1="550.176" x2="573.588" y2="564.096" stroke="#B95B40"/>
<line x1="576.801" y1="549.124" x2="576.801" y2="564.651" stroke="#B95B40"/>
<rect x="576.301" y="534.133" width="11.7788" height="6.96022" rx="2" fill="#BD5B41"/>
<path d="M592.898 533.933C592.898 533.891 592.92 533.851 592.955 533.829L595.352 532.304C595.672 532.1 596.045 531.991 596.425 531.991H597.449H599.311C599.496 531.991 599.681 531.965 599.86 531.914L600.968 531.598C601.285 531.507 601.548 531.288 601.695 530.994L601.715 530.956C601.891 530.603 601.865 530.182 601.646 529.854V529.854C601.528 529.676 601.36 529.537 601.164 529.453L599.782 528.861C599.655 528.806 599.522 528.765 599.387 528.738L597.335 528.328C597.057 528.272 596.795 528.158 596.564 527.994L595.362 527.135C595.15 526.984 594.905 526.888 594.647 526.856L593.795 526.749C593.318 526.69 593.001 526.227 593.117 525.761V525.761C593.149 525.633 593.149 525.5 593.117 525.372L592.975 524.801C592.926 524.607 592.795 524.444 592.617 524.355V524.355C592.454 524.274 592.266 524.26 592.094 524.318L592.017 524.343C591.732 524.438 591.516 524.672 591.443 524.964L591.303 525.521C591.296 525.551 591.292 525.582 591.292 525.613V525.613C591.292 525.925 590.936 526.103 590.687 525.916L590.374 525.681C590.275 525.607 590.154 525.566 590.03 525.566H589.905C589.601 525.566 589.317 525.718 589.148 525.971V525.971C588.982 526.221 588.949 526.536 589.06 526.814L589.297 527.405C589.376 527.602 589.513 527.771 589.689 527.889V527.889C590.016 528.107 590.194 528.488 590.151 528.879L589.976 530.45C589.961 530.583 589.915 530.711 589.84 530.823V530.823C589.601 531.182 589.673 531.664 590.007 531.938L592.333 533.841C592.353 533.857 592.374 533.871 592.397 533.882L592.719 534.043C592.802 534.085 592.898 534.025 592.898 533.933V533.933Z" fill="#BD5B41"/>
<path d="M587.009 534.401L589.686 531.188L592.898 533.865L591.292 536.542L589.686 539.219L588.615 540.29L587.276 541.093L587.009 534.401Z" fill="#BD5B41"/>
<path d="M600.536 475.579C602.503 472.506 606.992 472.506 608.959 475.579L617.776 489.354C619.906 492.682 617.516 497.049 613.565 497.049H595.93C591.979 497.049 589.589 492.682 591.719 489.354L600.536 475.579Z" fill="#BD5B41"/>
<ellipse cx="603.121" cy="495.423" rx="22.358" ry="12.6018" fill="#BD5B41"/>
<path d="M581.734 517.829L592.138 501.908L582.205 498.816L581.734 517.829Z" fill="#BD5B41"/>
<path d="M613.589 521.342L619.849 503.384L609.465 502.777L613.589 521.342Z" fill="#BD5B41"/>
<path d="M619.29 521.062L624.57 498.474L614.168 498.438L619.29 521.062Z" fill="#BD5B41"/>
<path d="M588.937 519.277L599.34 503.357L589.408 500.265L588.937 519.277Z" fill="#BD5B41"/>
<line x1="582.874" y1="514.65" x2="581.248" y2="521.154" stroke="#B95B40"/>
<line x1="581.236" y1="520.869" x2="587.74" y2="539.568" stroke="#B95B40"/>
<line x1="594.93" y1="539.91" x2="588.426" y2="522.837" stroke="#B95B40"/>
<path d="M588.487 523.066L590.123 515.254" stroke="#B95B40"/>
<line x1="613.784" y1="519.388" x2="614.597" y2="540.526" stroke="#B95B40"/>
<line x1="619.475" y1="517.781" x2="619.475" y2="541.359" stroke="#B95B40"/>
<rect x="618.975" y="495.017" width="17.8864" height="10.5692" rx="2" fill="#BD5B41"/>
<path d="M644.179 494.713C644.179 494.649 644.211 494.589 644.266 494.555L648.159 492.077C648.48 491.873 648.852 491.764 649.233 491.764H651.089H654.061C654.247 491.764 654.432 491.739 654.611 491.688L656.433 491.167C656.914 491.03 657.314 490.697 657.538 490.25L657.567 490.192C657.835 489.656 657.795 489.018 657.462 488.519V488.519C657.283 488.249 657.028 488.038 656.731 487.91L654.533 486.968C654.406 486.914 654.273 486.873 654.137 486.846L650.697 486.158C650.42 486.102 650.157 485.988 649.927 485.824L647.843 484.335C647.572 484.142 647.258 484.019 646.928 483.978L645.54 483.805C644.816 483.714 644.335 483.011 644.511 482.303V482.303C644.56 482.11 644.56 481.907 644.511 481.713L644.295 480.846C644.221 480.552 644.022 480.304 643.751 480.168V480.168C643.504 480.045 643.219 480.025 642.957 480.112L642.841 480.151C642.408 480.295 642.079 480.65 641.968 481.093L641.757 481.94C641.745 481.985 641.74 482.032 641.74 482.079V482.079C641.74 482.552 641.199 482.823 640.821 482.539L640.346 482.182C640.195 482.069 640.012 482.008 639.823 482.008H639.633C639.171 482.008 638.74 482.239 638.484 482.623V482.623C638.232 483.002 638.182 483.48 638.351 483.902L638.71 484.801C638.83 485.1 639.038 485.356 639.306 485.535V485.535C639.802 485.866 640.072 486.445 640.006 487.038L639.741 489.424C639.719 489.626 639.648 489.82 639.535 489.99V489.99C639.171 490.536 639.281 491.268 639.788 491.683L643.32 494.573C643.35 494.598 643.383 494.619 643.418 494.636L643.907 494.881C644.032 494.943 644.179 494.852 644.179 494.713V494.713Z" fill="#BD5B41"/>
<path d="M635.235 495.423L639.301 490.545L644.179 494.61L641.74 498.675L639.301 502.74L637.675 504.366L635.642 505.586L635.235 495.423Z" fill="#BD5B41"/>
<path d="M729.258 547.444C729.258 540.572 734.83 535 741.702 535C748.575 535 754.147 540.572 754.147 547.444V570.728L751.402 600.116C751.052 603.858 747.431 606.393 743.796 605.441C742.817 605.184 741.79 605.176 740.807 605.416L740.663 605.451C736.747 606.409 732.882 603.703 732.441 599.695L729.258 570.728V547.444Z" fill="#8B8538"/>
<path d="M728.344 572.393C726.17 571.878 724.572 570.028 724.377 567.803L723.55 558.341C723.277 555.225 720.328 553.058 717.273 553.73C714.805 554.273 713.089 556.516 713.21 559.04L713.685 568.946C713.723 569.73 713.852 570.506 714.071 571.259L714.704 573.434C715.287 575.44 716.588 577.16 718.36 578.267C719.71 579.112 721.271 579.559 722.864 579.559H728.856C730.774 579.559 732.33 578.003 732.33 576.085C732.33 574.474 731.223 573.075 729.656 572.704L728.344 572.393Z" fill="#8B8538"/>
<path d="M755.325 565.709C757.242 565.325 758.686 563.737 758.887 561.792L759.521 555.662C759.799 552.965 762.32 551.081 764.985 551.577C767.281 552.004 768.901 554.07 768.769 556.401L768.413 562.676C768.363 563.555 768.192 564.424 767.906 565.257L767.642 566.026C767.017 567.843 765.725 569.354 764.026 570.252C762.937 570.828 761.724 571.129 760.492 571.129H754.322C752.895 571.129 751.738 569.972 751.738 568.545C751.738 567.314 752.607 566.254 753.814 566.012L755.325 565.709Z" fill="#8B8538"/>
<rect x="436.948" y="358" width="7.10417" height="80.1146" rx="3.55208" fill="#8B8538" stroke="#8B8538" stroke-width="2"/>
<mask id="path-62-outside-1" maskUnits="userSpaceOnUse" x="435.948" y="398.388" width="31" height="16" fill="black">
<rect fill="white" x="435.948" y="398.388" width="31" height="16"/>
<path d="M462.93 400.867C464.073 400.867 465.021 401.804 464.783 402.922C464.295 405.214 462.999 407.344 461.038 409.013C458.502 411.174 455.061 412.388 451.474 412.388C447.887 412.388 444.446 411.174 441.91 409.013C439.949 407.344 438.653 405.214 438.165 402.922C437.927 401.804 438.875 400.867 440.018 400.867C441.161 400.867 442.06 401.814 442.398 402.906C442.818 404.262 443.653 405.512 444.837 406.52C446.597 408.019 448.985 408.862 451.474 408.862C453.963 408.862 456.351 408.019 458.111 406.52C459.295 405.512 460.13 404.262 460.55 402.906C460.888 401.814 461.787 400.867 462.93 400.867Z"/>
</mask>
<path d="M462.93 400.867C464.073 400.867 465.021 401.804 464.783 402.922C464.295 405.214 462.999 407.344 461.038 409.013C458.502 411.174 455.061 412.388 451.474 412.388C447.887 412.388 444.446 411.174 441.91 409.013C439.949 407.344 438.653 405.214 438.165 402.922C437.927 401.804 438.875 400.867 440.018 400.867C441.161 400.867 442.06 401.814 442.398 402.906C442.818 404.262 443.653 405.512 444.837 406.52C446.597 408.019 448.985 408.862 451.474 408.862C453.963 408.862 456.351 408.019 458.111 406.52C459.295 405.512 460.13 404.262 460.55 402.906C460.888 401.814 461.787 400.867 462.93 400.867Z" fill="#8B8538"/>
<path d="M462.93 400.867C464.073 400.867 465.021 401.804 464.783 402.922C464.295 405.214 462.999 407.344 461.038 409.013C458.502 411.174 455.061 412.388 451.474 412.388C447.887 412.388 444.446 411.174 441.91 409.013C439.949 407.344 438.653 405.214 438.165 402.922C437.927 401.804 438.875 400.867 440.018 400.867C441.161 400.867 442.06 401.814 442.398 402.906C442.818 404.262 443.653 405.512 444.837 406.52C446.597 408.019 448.985 408.862 451.474 408.862C453.963 408.862 456.351 408.019 458.111 406.52C459.295 405.512 460.13 404.262 460.55 402.906C460.888 401.814 461.787 400.867 462.93 400.867Z" stroke="#8B8538" stroke-width="4" mask="url(#path-62-outside-1)"/>
<mask id="path-63-outside-2" maskUnits="userSpaceOnUse" x="414" y="389.834" width="31" height="15" fill="black">
<rect fill="white" x="414" y="389.834" width="31" height="15"/>
<path d="M440.982 391.876C442.125 391.876 443.075 392.814 442.813 393.927C442.309 396.07 441.022 398.06 439.09 399.624C436.554 401.68 433.113 402.834 429.526 402.834C425.939 402.834 422.498 401.68 419.962 399.624C418.03 398.06 416.743 396.07 416.239 393.927C415.977 392.814 416.927 391.876 418.07 391.876C419.213 391.876 420.111 392.826 420.481 393.908C420.91 395.161 421.734 396.317 422.889 397.253C424.649 398.679 427.037 399.48 429.526 399.48C432.015 399.48 434.403 398.679 436.163 397.253C437.319 396.317 438.142 395.161 438.571 393.908C438.941 392.826 439.839 391.876 440.982 391.876Z"/>
</mask>
<path d="M440.982 391.876C442.125 391.876 443.075 392.814 442.813 393.927C442.309 396.07 441.022 398.06 439.09 399.624C436.554 401.68 433.113 402.834 429.526 402.834C425.939 402.834 422.498 401.68 419.962 399.624C418.03 398.06 416.743 396.07 416.239 393.927C415.977 392.814 416.927 391.876 418.07 391.876C419.213 391.876 420.111 392.826 420.481 393.908C420.91 395.161 421.734 396.317 422.889 397.253C424.649 398.679 427.037 399.48 429.526 399.48C432.015 399.48 434.403 398.679 436.163 397.253C437.319 396.317 438.142 395.161 438.571 393.908C438.941 392.826 439.839 391.876 440.982 391.876Z" fill="#8B8538"/>
<path d="M440.982 391.876C442.125 391.876 443.075 392.814 442.813 393.927C442.309 396.07 441.022 398.06 439.09 399.624C436.554 401.68 433.113 402.834 429.526 402.834C425.939 402.834 422.498 401.68 419.962 399.624C418.03 398.06 416.743 396.07 416.239 393.927C415.977 392.814 416.927 391.876 418.07 391.876C419.213 391.876 420.111 392.826 420.481 393.908C420.91 395.161 421.734 396.317 422.889 397.253C424.649 398.679 427.037 399.48 429.526 399.48C432.015 399.48 434.403 398.679 436.163 397.253C437.319 396.317 438.142 395.161 438.571 393.908C438.941 392.826 439.839 391.876 440.982 391.876Z" stroke="#8B8538" stroke-width="4" mask="url(#path-63-outside-2)"/>
<mask id="path-64-outside-3" maskUnits="userSpaceOnUse" x="422.167" y="369.231" width="23" height="12" fill="black">
<rect fill="white" x="422.167" y="369.231" width="23" height="12"/>
<path d="M441.607 371.363C442.405 371.363 443.067 372.018 442.894 372.797C442.549 374.351 441.646 375.794 440.286 376.927C438.516 378.402 436.114 379.231 433.609 379.231C431.105 379.231 428.703 378.402 426.932 376.927C425.573 375.794 424.67 374.351 424.325 372.797C424.152 372.018 424.814 371.363 425.612 371.363C426.41 371.363 427.037 372.025 427.283 372.785C427.579 373.699 428.158 374.542 428.976 375.224C430.205 376.248 431.872 376.823 433.609 376.823C435.347 376.823 437.014 376.248 438.243 375.224C439.061 374.542 439.64 373.699 439.936 372.785C440.182 372.025 440.809 371.363 441.607 371.363Z"/>
</mask>
<path d="M441.607 371.363C442.405 371.363 443.067 372.018 442.894 372.797C442.549 374.351 441.646 375.794 440.286 376.927C438.516 378.402 436.114 379.231 433.609 379.231C431.105 379.231 428.703 378.402 426.932 376.927C425.573 375.794 424.67 374.351 424.325 372.797C424.152 372.018 424.814 371.363 425.612 371.363C426.41 371.363 427.037 372.025 427.283 372.785C427.579 373.699 428.158 374.542 428.976 375.224C430.205 376.248 431.872 376.823 433.609 376.823C435.347 376.823 437.014 376.248 438.243 375.224C439.061 374.542 439.64 373.699 439.936 372.785C440.182 372.025 440.809 371.363 441.607 371.363Z" fill="#8B8538"/>
<path d="M441.607 371.363C442.405 371.363 443.067 372.018 442.894 372.797C442.549 374.351 441.646 375.794 440.286 376.927C438.516 378.402 436.114 379.231 433.609 379.231C431.105 379.231 428.703 378.402 426.932 376.927C425.573 375.794 424.67 374.351 424.325 372.797C424.152 372.018 424.814 371.363 425.612 371.363C426.41 371.363 427.037 372.025 427.283 372.785C427.579 373.699 428.158 374.542 428.976 375.224C430.205 376.248 431.872 376.823 433.609 376.823C435.347 376.823 437.014 376.248 438.243 375.224C439.061 374.542 439.64 373.699 439.936 372.785C440.182 372.025 440.809 371.363 441.607 371.363Z" stroke="#8B8538" stroke-width="4" mask="url(#path-64-outside-3)"/>
<rect x="1" y="-1" width="5.64584" height="52.6771" rx="2.82292" transform="matrix(-1 0 0 1 478.323 392.573)" fill="#8B8538" stroke="#8B8538" stroke-width="2"/>
<mask id="path-66-outside-4" maskUnits="userSpaceOnUse" x="454.323" y="417.208" width="24" height="12" fill="black">
<rect fill="white" x="454.323" y="417.208" width="24" height="12"/>
<path d="M458.478 419.734C457.662 419.734 456.983 420.406 457.187 421.197C457.558 422.635 458.47 423.967 459.83 425.019C461.642 426.421 464.099 427.208 466.661 427.208C469.224 427.208 471.681 426.421 473.493 425.019C474.853 423.967 475.765 422.635 476.136 421.197C476.34 420.406 475.661 419.734 474.844 419.734C474.028 419.734 473.387 420.416 473.1 421.181C472.788 422.012 472.208 422.778 471.402 423.402C470.145 424.374 468.44 424.921 466.661 424.921C464.883 424.921 463.178 424.374 461.921 423.402C461.115 422.778 460.535 422.012 460.223 421.181C459.936 420.416 459.295 419.734 458.478 419.734Z"/>
</mask>
<path d="M458.478 419.734C457.662 419.734 456.983 420.406 457.187 421.197C457.558 422.635 458.47 423.967 459.83 425.019C461.642 426.421 464.099 427.208 466.661 427.208C469.224 427.208 471.681 426.421 473.493 425.019C474.853 423.967 475.765 422.635 476.136 421.197C476.34 420.406 475.661 419.734 474.844 419.734C474.028 419.734 473.387 420.416 473.1 421.181C472.788 422.012 472.208 422.778 471.402 423.402C470.145 424.374 468.44 424.921 466.661 424.921C464.883 424.921 463.178 424.374 461.921 423.402C461.115 422.778 460.535 422.012 460.223 421.181C459.936 420.416 459.295 419.734 458.478 419.734Z" fill="#8B8538"/>
<path d="M458.478 419.734C457.662 419.734 456.983 420.406 457.187 421.197C457.558 422.635 458.47 423.967 459.83 425.019C461.642 426.421 464.099 427.208 466.661 427.208C469.224 427.208 471.681 426.421 473.493 425.019C474.853 423.967 475.765 422.635 476.136 421.197C476.34 420.406 475.661 419.734 474.844 419.734C474.028 419.734 473.387 420.416 473.1 421.181C472.788 422.012 472.208 422.778 471.402 423.402C470.145 424.374 468.44 424.921 466.661 424.921C464.883 424.921 463.178 424.374 461.921 423.402C461.115 422.778 460.535 422.012 460.223 421.181C459.936 420.416 459.295 419.734 458.478 419.734Z" stroke="#8B8538" stroke-width="4" mask="url(#path-66-outside-4)"/>
<mask id="path-67-outside-5" maskUnits="userSpaceOnUse" x="470" y="411.01" width="24" height="12" fill="black">
<rect fill="white" x="470" y="411.01" width="24" height="12"/>
<path d="M474.156 413.901C473.339 413.901 472.659 414.575 472.883 415.36C473.265 416.702 474.17 417.944 475.507 418.928C477.319 420.261 479.776 421.01 482.339 421.01C484.901 421.01 487.358 420.261 489.17 418.928C490.507 417.944 491.412 416.702 491.794 415.36C492.018 414.575 491.338 413.901 490.521 413.901C489.705 413.901 489.064 414.586 488.751 415.341C488.433 416.107 487.863 416.812 487.079 417.389C485.822 418.315 484.117 418.834 482.339 418.834C480.56 418.834 478.855 418.315 477.598 417.389C476.814 416.812 476.244 416.107 475.926 415.341C475.613 414.586 474.972 413.901 474.156 413.901Z"/>
</mask>
<path d="M474.156 413.901C473.339 413.901 472.659 414.575 472.883 415.36C473.265 416.702 474.17 417.944 475.507 418.928C477.319 420.261 479.776 421.01 482.339 421.01C484.901 421.01 487.358 420.261 489.17 418.928C490.507 417.944 491.412 416.702 491.794 415.36C492.018 414.575 491.338 413.901 490.521 413.901C489.705 413.901 489.064 414.586 488.751 415.341C488.433 416.107 487.863 416.812 487.079 417.389C485.822 418.315 484.117 418.834 482.339 418.834C480.56 418.834 478.855 418.315 477.598 417.389C476.814 416.812 476.244 416.107 475.926 415.341C475.613 414.586 474.972 413.901 474.156 413.901Z" fill="#8B8538"/>
<path d="M474.156 413.901C473.339 413.901 472.659 414.575 472.883 415.36C473.265 416.702 474.17 417.944 475.507 418.928C477.319 420.261 479.776 421.01 482.339 421.01C484.901 421.01 487.358 420.261 489.17 418.928C490.507 417.944 491.412 416.702 491.794 415.36C492.018 414.575 491.338 413.901 490.521 413.901C489.705 413.901 489.064 414.586 488.751 415.341C488.433 416.107 487.863 416.812 487.079 417.389C485.822 418.315 484.117 418.834 482.339 418.834C480.56 418.834 478.855 418.315 477.598 417.389C476.814 416.812 476.244 416.107 475.926 415.341C475.613 414.586 474.972 413.901 474.156 413.901Z" stroke="#8B8538" stroke-width="4" mask="url(#path-67-outside-5)"/>
<mask id="path-68-outside-6" maskUnits="userSpaceOnUse" x="470.167" y="397.698" width="18" height="10" fill="black">
<rect fill="white" x="470.167" y="397.698" width="18" height="10"/>
<path d="M473.709 400.594C473.139 400.594 472.665 401.063 472.813 401.614C473.076 402.587 473.71 403.49 474.653 404.203C475.918 405.16 477.633 405.698 479.422 405.698C481.211 405.698 482.926 405.16 484.191 404.203C485.134 403.49 485.768 402.587 486.031 401.614C486.179 401.063 485.705 400.594 485.135 400.594C484.564 400.594 484.117 401.071 483.909 401.601C483.689 402.162 483.287 402.677 482.731 403.098C481.854 403.762 480.663 404.136 479.422 404.136C478.181 404.136 476.99 403.762 476.112 403.098C475.556 402.677 475.155 402.162 474.935 401.601C474.727 401.071 474.279 400.594 473.709 400.594Z"/>
</mask>
<path d="M473.709 400.594C473.139 400.594 472.665 401.063 472.813 401.614C473.076 402.587 473.71 403.49 474.653 404.203C475.918 405.16 477.633 405.698 479.422 405.698C481.211 405.698 482.926 405.16 484.191 404.203C485.134 403.49 485.768 402.587 486.031 401.614C486.179 401.063 485.705 400.594 485.135 400.594C484.564 400.594 484.117 401.071 483.909 401.601C483.689 402.162 483.287 402.677 482.731 403.098C481.854 403.762 480.663 404.136 479.422 404.136C478.181 404.136 476.99 403.762 476.112 403.098C475.556 402.677 475.155 402.162 474.935 401.601C474.727 401.071 474.279 400.594 473.709 400.594Z" fill="#8B8538"/>
<path d="M473.709 400.594C473.139 400.594 472.665 401.063 472.813 401.614C473.076 402.587 473.71 403.49 474.653 404.203C475.918 405.16 477.633 405.698 479.422 405.698C481.211 405.698 482.926 405.16 484.191 404.203C485.134 403.49 485.768 402.587 486.031 401.614C486.179 401.063 485.705 400.594 485.135 400.594C484.564 400.594 484.117 401.071 483.909 401.601C483.689 402.162 483.287 402.677 482.731 403.098C481.854 403.762 480.663 404.136 479.422 404.136C478.181 404.136 476.99 403.762 476.112 403.098C475.556 402.677 475.155 402.162 474.935 401.601C474.727 401.071 474.279 400.594 473.709 400.594Z" stroke="#8B8538" stroke-width="4" mask="url(#path-68-outside-6)"/>
<path d="M282.55 490.544C282.55 486.93 285.48 484 289.094 484C292.709 484 295.639 486.93 295.639 490.544V502.789L294.195 518.244C294.011 520.212 292.107 521.545 290.195 521.044C289.681 520.909 289.14 520.905 288.624 521.031L288.548 521.05C286.488 521.553 284.456 520.13 284.224 518.023L282.55 502.789V490.544Z" fill="#8B8538"/>
<path d="M282.069 503.665C280.926 503.394 280.085 502.421 279.983 501.251L279.548 496.275C279.405 494.636 277.854 493.497 276.247 493.85C274.949 494.136 274.047 495.315 274.11 496.643L274.35 501.642C274.377 502.194 274.468 502.74 274.622 503.27L274.896 504.212C275.203 505.267 275.887 506.172 276.819 506.754C277.529 507.198 278.35 507.433 279.187 507.433H282.338C283.347 507.433 284.166 506.615 284.166 505.606C284.166 504.759 283.584 504.023 282.759 503.828L282.069 503.665Z" fill="#8B8538"/>
<path d="M296.258 500.15C297.267 499.948 298.026 499.113 298.132 498.089L298.465 494.866C298.611 493.448 299.937 492.457 301.339 492.718C302.546 492.942 303.398 494.029 303.328 495.255L303.141 498.555C303.115 499.017 303.025 499.474 302.875 499.912L302.736 500.316C302.407 501.272 301.728 502.067 300.834 502.539C300.262 502.842 299.624 503 298.976 503H295.731C294.981 503 294.372 502.392 294.372 501.641C294.372 500.994 294.829 500.436 295.464 500.309L296.258 500.15Z" fill="#8B8538"/>
<path d="M506.717 564.291C506.717 560.877 503.95 558.11 500.536 558.11C497.123 558.11 494.355 560.877 494.355 564.291V575.856L495.719 590.453C495.892 592.311 497.691 593.57 499.497 593.097C499.983 592.97 500.493 592.966 500.981 593.085L501.053 593.103C502.998 593.578 504.918 592.234 505.136 590.244L506.717 575.856V564.291Z" fill="#8B8538"/>
<path d="M507.172 576.683C508.251 576.427 509.045 575.508 509.142 574.403L509.553 569.703C509.688 568.155 511.153 567.079 512.67 567.413C513.896 567.683 514.749 568.797 514.688 570.051L514.462 574.772C514.437 575.293 514.351 575.809 514.205 576.31L513.946 577.2C513.657 578.196 513.01 579.051 512.13 579.601C511.46 580.02 510.684 580.242 509.893 580.242H506.917C505.964 580.242 505.192 579.469 505.192 578.516C505.192 577.716 505.741 577.021 506.52 576.837L507.172 576.683Z" fill="#8B8538"/>
<path d="M493.77 573.363C492.818 573.172 492.1 572.383 492.001 571.417L491.686 568.372C491.548 567.033 490.296 566.097 488.972 566.344C487.832 566.556 487.027 567.582 487.093 568.74L487.269 571.856C487.294 572.293 487.379 572.725 487.521 573.138L487.652 573.52C487.963 574.423 488.605 575.173 489.448 575.619C489.989 575.905 490.592 576.055 491.203 576.055H494.268C494.977 576.055 495.552 575.48 495.552 574.772C495.552 574.16 495.12 573.633 494.52 573.513L493.77 573.363Z" fill="#8B8538"/>
<line y1="-0.5" x2="2.15745" y2="-0.5" transform="matrix(-0.514496 -0.857493 -0.857493 0.514496 496.663 559.96)" stroke="#4B481C"/>
<line y1="-0.5" x2="2.15745" y2="-0.5" transform="matrix(-0.514496 -0.857493 -0.857493 0.514496 494.812 565.14)" stroke="#4B481C"/>
<line y1="-0.5" x2="2.15745" y2="-0.5" transform="matrix(-0.514496 -0.857493 -0.857493 0.514496 511.093 568.1)" stroke="#4B481C"/>
<line y1="-0.5" x2="2.15745" y2="-0.5" transform="matrix(-0.857493 -0.514496 -0.514496 0.857493 496.663 559.96)" stroke="#4B481C"/>
<line y1="-0.5" x2="2.15745" y2="-0.5" transform="matrix(-0.857493 -0.514496 -0.514496 0.857493 494.812 565.14)" stroke="#4B481C"/>
<line y1="-0.5" x2="2.15745" y2="-0.5" transform="matrix(0.572645 -0.819803 -0.819803 -0.572645 502.744 559.444)" stroke="#4B481C"/>
<line y1="-0.5" x2="2.15745" y2="-0.5" transform="matrix(0.119485 -0.992836 -0.992836 -0.119485 502.744 559.444)" stroke="#4B481C"/>
<line y1="-0.5" x2="2.15745" y2="-0.5" transform="matrix(0.999993 0.00378387 0.00378387 -0.999993 505.962 570.423)" stroke="#4B481C"/>
<line y1="-0.5" x2="2.15745" y2="-0.5" transform="matrix(0.884127 -0.467246 -0.467246 -0.884127 505.962 570.423)" stroke="#4B481C"/>
<line y1="-0.5" x2="2.15745" y2="-0.5" transform="matrix(0.979346 -0.202193 -0.202193 -0.979346 506.145 564.296)" stroke="#4B481C"/>
<line y1="-0.5" x2="2.15745" y2="-0.5" transform="matrix(0.768979 -0.639274 -0.639274 -0.768979 506.145 564.296)" stroke="#4B481C"/>
<line y1="-0.5" x2="2.15745" y2="-0.5" transform="matrix(-0.514496 -0.857493 -0.857493 0.514496 488.153 566.99)" stroke="#4B481C"/>
<line y1="-0.5" x2="2.15745" y2="-0.5" transform="matrix(-0.857493 -0.514496 -0.514496 0.857493 488.153 566.99)" stroke="#4B481C"/>
<line y1="-0.5" x2="2.15745" y2="-0.5" transform="matrix(-0.857493 -0.514496 -0.514496 0.857493 511.093 568.1)" stroke="#4B481C"/>
<line y1="-0.5" x2="2.15745" y2="-0.5" transform="matrix(0.939103 -0.343636 -0.343636 -0.939103 513.737 568.807)" stroke="#4B481C"/>
<line y1="-0.5" x2="2.15745" y2="-0.5" transform="matrix(0.66691 -0.745139 -0.745139 -0.66691 513.737 568.807)" stroke="#4B481C"/>
<line y1="-0.5" x2="2.15745" y2="-0.5" transform="matrix(-0.800767 -0.598975 -0.598975 0.800767 487.413 570.182)" stroke="#4B481C"/>
<line y1="-0.5" x2="2.15745" y2="-0.5" transform="matrix(-0.98843 -0.151676 -0.151676 0.98843 487.413 570.182)" stroke="#4B481C"/>
<line y1="-0.5" x2="2.15745" y2="-0.5" transform="matrix(0.999873 -0.0159319 -0.0159319 -0.999873 514.115 572.661)" stroke="#4B481C"/>
<line y1="-0.5" x2="2.15745" y2="-0.5" transform="matrix(0.874744 -0.484586 -0.484586 -0.874744 514.115 572.661)" stroke="#4B481C"/>
<line y1="-0.5" x2="2.15745" y2="-0.5" transform="matrix(0.999873 -0.0159319 -0.0159319 -0.999873 491.175 568.221)" stroke="#4B481C"/>
<line y1="-0.5" x2="2.15745" y2="-0.5" transform="matrix(0.874744 -0.484586 -0.484586 -0.874744 491.175 568.221)" stroke="#4B481C"/>
<path d="M799.822 395.283C799.822 390.709 803.53 387 808.105 387C812.68 387 816.388 390.709 816.388 395.283V410.781L814.561 430.343C814.329 432.833 811.918 434.521 809.499 433.887C808.847 433.716 808.163 433.711 807.509 433.871L807.413 433.894C804.806 434.531 802.234 432.73 801.941 430.063L799.822 410.781V395.283Z" fill="#8B8538"/>
<path d="M799.213 411.89C797.766 411.547 796.702 410.316 796.573 408.835L796.022 402.536C795.841 400.462 793.878 399.02 791.844 399.467C790.202 399.829 789.059 401.322 789.14 403.002L789.443 409.33C789.477 410.028 789.592 410.719 789.787 411.39L790.134 412.583C790.522 413.918 791.389 415.063 792.568 415.8C793.467 416.362 794.505 416.66 795.566 416.66H799.554C800.831 416.66 801.867 415.624 801.867 414.347C801.867 413.275 801.13 412.344 800.087 412.096L799.213 411.89Z" fill="#8B8538"/>
<path d="M817.172 407.441C818.449 407.185 819.41 406.128 819.544 404.833L819.965 400.753C820.151 398.958 821.829 397.704 823.603 398.034C825.13 398.318 826.209 399.694 826.121 401.245L825.884 405.422C825.851 406.007 825.737 406.585 825.547 407.14L825.371 407.652C824.955 408.861 824.095 409.867 822.964 410.465C822.24 410.848 821.432 411.048 820.612 411.048H816.505C815.555 411.048 814.785 410.278 814.785 409.328C814.785 408.509 815.363 407.803 816.167 407.642L817.172 407.441Z" fill="#8B8538"/>
<path d="M512.226 584C512.226 581.791 514.017 580 516.226 580C518.435 580 520.226 581.791 520.226 584V591.484L519.343 600.93C519.231 602.133 518.067 602.948 516.899 602.642C516.584 602.559 516.254 602.557 515.938 602.634L515.892 602.645C514.633 602.953 513.391 602.083 513.249 600.795L512.226 591.484V584Z" fill="#8B8538"/>
<path d="M511.932 592.019C511.233 591.854 510.719 591.259 510.657 590.544L510.391 587.502C510.303 586.501 509.355 585.804 508.373 586.02C507.58 586.195 507.028 586.916 507.067 587.727L507.214 590.783C507.23 591.12 507.286 591.454 507.38 591.778L507.548 592.354C507.735 592.998 508.153 593.552 508.723 593.907C509.157 594.179 509.659 594.323 510.171 594.323H512.096C512.713 594.323 513.213 593.823 513.213 593.206C513.213 592.688 512.858 592.238 512.354 592.119L511.932 592.019Z" fill="#8B8538"/>
<path d="M520.604 589.871C521.221 589.747 521.685 589.237 521.749 588.612L521.953 586.641C522.043 585.775 522.853 585.169 523.709 585.328C524.447 585.466 524.968 586.13 524.926 586.879L524.811 588.896C524.795 589.179 524.74 589.458 524.648 589.725L524.563 589.973C524.363 590.557 523.947 591.042 523.401 591.331C523.051 591.516 522.661 591.613 522.265 591.613H520.282C519.823 591.613 519.452 591.241 519.452 590.782C519.452 590.387 519.731 590.046 520.119 589.968L520.604 589.871Z" fill="#8B8538"/>
<path d="M491.503 308.562C491.503 304.553 488.253 301.303 484.244 301.303C480.236 301.303 476.986 304.553 476.986 308.562V322.142L478.587 339.284C478.791 341.466 480.903 342.945 483.023 342.39C483.594 342.24 484.193 342.235 484.767 342.375L484.851 342.396C487.135 342.954 489.389 341.376 489.646 339.039L491.503 322.142V308.562Z" fill="#8B8538"/>
<path d="M492.036 323.114C493.304 322.813 494.236 321.734 494.35 320.437L494.832 314.917C494.991 313.1 496.712 311.836 498.493 312.228C499.933 312.545 500.934 313.853 500.863 315.326L500.597 320.87C500.568 321.482 500.467 322.088 500.296 322.676L499.992 323.721C499.652 324.891 498.893 325.894 497.86 326.54C497.072 327.032 496.161 327.294 495.233 327.294H491.738C490.618 327.294 489.711 326.386 489.711 325.267C489.711 324.328 490.357 323.511 491.271 323.295L492.036 323.114Z" fill="#8B8538"/>
<path d="M476.299 319.215C475.181 318.991 474.338 318.065 474.221 316.93L473.852 313.355C473.689 311.782 472.219 310.683 470.664 310.972C469.325 311.221 468.38 312.427 468.457 313.786L468.665 317.446C468.694 317.959 468.794 318.466 468.961 318.951L469.115 319.4C469.479 320.46 470.233 321.341 471.224 321.865C471.859 322.201 472.566 322.376 473.285 322.376H476.884C477.716 322.376 478.391 321.702 478.391 320.869C478.391 320.151 477.884 319.533 477.18 319.392L476.299 319.215Z" fill="#8B8538"/>
<line y1="-0.5" x2="2.53353" y2="-0.5" transform="matrix(-0.514496 -0.857493 -0.857493 0.514496 479.695 303.476)" stroke="#4B481C"/>
<line y1="-0.5" x2="2.53353" y2="-0.5" transform="matrix(-0.514496 -0.857493 -0.857493 0.514496 477.523 309.559)" stroke="#4B481C"/>
<line y1="-0.5" x2="2.53353" y2="-0.5" transform="matrix(-0.514496 -0.857493 -0.857493 0.514496 496.641 313.035)" stroke="#4B481C"/>
<line y1="-0.5" x2="2.53353" y2="-0.5" transform="matrix(-0.857493 -0.514496 -0.514496 0.857493 479.695 303.476)" stroke="#4B481C"/>
<line y1="-0.5" x2="2.53353" y2="-0.5" transform="matrix(-0.857493 -0.514496 -0.514496 0.857493 477.523 309.559)" stroke="#4B481C"/>
<line y1="-0.5" x2="2.53353" y2="-0.5" transform="matrix(0.572645 -0.819803 -0.819803 -0.572645 486.837 302.87)" stroke="#4B481C"/>
<line y1="-0.5" x2="2.53353" y2="-0.5" transform="matrix(0.119485 -0.992836 -0.992836 -0.119485 486.837 302.87)" stroke="#4B481C"/>
<line y1="-0.5" x2="2.53353" y2="-0.5" transform="matrix(0.999993 0.00378387 0.00378387 -0.999993 490.616 315.762)" stroke="#4B481C"/>
<line y1="-0.5" x2="2.53353" y2="-0.5" transform="matrix(0.884127 -0.467246 -0.467246 -0.884127 490.616 315.762)" stroke="#4B481C"/>
<line y1="-0.5" x2="2.53353" y2="-0.5" transform="matrix(0.979346 -0.202193 -0.202193 -0.979346 490.831 308.568)" stroke="#4B481C"/>
<line y1="-0.5" x2="2.53353" y2="-0.5" transform="matrix(0.768979 -0.639274 -0.639274 -0.768979 490.831 308.568)" stroke="#4B481C"/>
<line y1="-0.5" x2="2.53353" y2="-0.5" transform="matrix(-0.514496 -0.857493 -0.857493 0.514496 469.702 311.731)" stroke="#4B481C"/>
<line y1="-0.5" x2="2.53353" y2="-0.5" transform="matrix(-0.857493 -0.514496 -0.514496 0.857493 469.702 311.731)" stroke="#4B481C"/>
<line y1="-0.5" x2="2.53353" y2="-0.5" transform="matrix(-0.857493 -0.514496 -0.514496 0.857493 496.641 313.035)" stroke="#4B481C"/>
<line y1="-0.5" x2="2.53353" y2="-0.5" transform="matrix(0.939103 -0.343636 -0.343636 -0.939103 499.746 313.865)" stroke="#4B481C"/>
<line y1="-0.5" x2="2.53353" y2="-0.5" transform="matrix(0.66691 -0.745139 -0.745139 -0.66691 499.746 313.865)" stroke="#4B481C"/>
<line y1="-0.5" x2="2.53353" y2="-0.5" transform="matrix(-0.800767 -0.598975 -0.598975 0.800767 468.833 315.48)" stroke="#4B481C"/>
<line y1="-0.5" x2="2.53353" y2="-0.5" transform="matrix(-0.98843 -0.151676 -0.151676 0.98843 468.833 315.48)" stroke="#4B481C"/>
<line y1="-0.5" x2="2.53353" y2="-0.5" transform="matrix(0.999873 -0.0159319 -0.0159319 -0.999873 500.19 318.391)" stroke="#4B481C"/>
<line y1="-0.5" x2="2.53353" y2="-0.5" transform="matrix(0.874744 -0.484586 -0.484586 -0.874744 500.19 318.391)" stroke="#4B481C"/>
<line y1="-0.5" x2="2.53353" y2="-0.5" transform="matrix(0.999873 -0.0159319 -0.0159319 -0.999873 473.251 313.177)" stroke="#4B481C"/>
<line y1="-0.5" x2="2.53353" y2="-0.5" transform="matrix(0.874744 -0.484586 -0.484586 -0.874744 473.251 313.177)" stroke="#4B481C"/>
<circle cx="864.5" cy="655.5" r="64" stroke="#919197" stroke-width="3"/>
<path d="M865.362 577L882.859 658.089H847.865L865.362 577Z" fill="#605D5D"/>
<path d="M865.362 738.632L882.859 657.543H847.865L865.362 738.632Z" fill="#605D5D"/>
<path d="M784 659.695L867 642.334V677.057L784 659.695Z" fill="#605D5D"/>
<path d="M950 659.695L867 642.334V677.057L950 659.695Z" fill="#605D5D"/>
<path d="M827.889 616.659L871.256 648.319L854.461 663.317L827.889 616.659Z" fill="#F36648"/>
<path d="M897.161 694.231L870.589 647.573L853.795 662.571L897.161 694.231Z" fill="#F36648"/>
<path d="M824.607 691.053L857.058 647.071L871.966 663.765L824.607 691.053Z" fill="#F36648"/>
<path d="M904.417 619.783L857.058 647.071L871.966 663.765L904.417 619.783Z" fill="#F36648"/>
<path d="M723.5 611C619.5 675 568.046 559.417 603.5 570C670.5 590 809.5 405 723.5 429.5C623.418 458.012 583 411.5 524.5 429.5C462.041 448.718 491.5 545 428.5 532" stroke="#605D5D" stroke-width="3" stroke-dasharray="5 5"/>
<rect x="634.115" y="518.5" width="2.77083" height="25.6146" rx="1.38542" fill="#8B8538" stroke="#8B8538"/>
<mask id="path-139-outside-7" maskUnits="userSpaceOnUse" x="633.615" y="530.823" width="12" height="6" fill="black">
<rect fill="white" x="633.615" y="530.823" width="12" height="6"/>
<path d="M643.282 532.193C643.679 532.193 644.008 532.519 643.909 532.903C643.729 533.601 643.286 534.249 642.626 534.76C641.746 535.44 640.552 535.823 639.307 535.823C638.063 535.823 636.869 535.44 635.989 534.76C635.329 534.249 634.885 533.601 634.705 532.903C634.606 532.519 634.936 532.193 635.333 532.193V532.193C635.729 532.193 636.041 532.524 636.18 532.895C636.332 533.299 636.613 533.671 637.005 533.974C637.615 534.446 638.444 534.712 639.307 534.712C640.171 534.712 640.999 534.446 641.61 533.974C642.001 533.671 642.283 533.299 642.435 532.895C642.574 532.524 642.885 532.193 643.282 532.193V532.193Z"/>
</mask>
<path d="M643.282 532.193C643.679 532.193 644.008 532.519 643.909 532.903C643.729 533.601 643.286 534.249 642.626 534.76C641.746 535.44 640.552 535.823 639.307 535.823C638.063 535.823 636.869 535.44 635.989 534.76C635.329 534.249 634.885 533.601 634.705 532.903C634.606 532.519 634.936 532.193 635.333 532.193V532.193C635.729 532.193 636.041 532.524 636.18 532.895C636.332 533.299 636.613 533.671 637.005 533.974C637.615 534.446 638.444 534.712 639.307 534.712C640.171 534.712 640.999 534.446 641.61 533.974C642.001 533.671 642.283 533.299 642.435 532.895C642.574 532.524 642.885 532.193 643.282 532.193V532.193Z" fill="#8B8538"/>
<path d="M643.282 532.193C643.679 532.193 644.008 532.519 643.909 532.903C643.729 533.601 643.286 534.249 642.626 534.76C641.746 535.44 640.552 535.823 639.307 535.823C638.063 535.823 636.869 535.44 635.989 534.76C635.329 534.249 634.885 533.601 634.705 532.903C634.606 532.519 634.936 532.193 635.333 532.193V532.193C635.729 532.193 636.041 532.524 636.18 532.895C636.332 533.299 636.613 533.671 637.005 533.974C637.615 534.446 638.444 534.712 639.307 534.712C640.171 534.712 640.999 534.446 641.61 533.974C642.001 533.671 642.283 533.299 642.435 532.895C642.574 532.524 642.885 532.193 643.282 532.193V532.193Z" stroke="#8B8538" stroke-width="2" mask="url(#path-139-outside-7)"/>
<mask id="path-140-outside-8" maskUnits="userSpaceOnUse" x="626" y="527.812" width="12" height="6" fill="black">
<rect fill="white" x="626" y="527.812" width="12" height="6"/>
<path d="M635.667 529.359C636.064 529.359 636.394 529.687 636.286 530.068C636.1 530.72 635.66 531.323 635.011 531.801C634.131 532.449 632.937 532.812 631.693 532.812C630.448 532.813 629.255 532.449 628.374 531.801C627.725 531.323 627.286 530.72 627.1 530.068C626.991 529.687 627.322 529.359 627.718 529.359V529.359C628.115 529.359 628.426 529.692 628.578 530.059C628.732 530.431 629.009 530.774 629.39 531.054C630.001 531.503 630.829 531.756 631.693 531.756C632.556 531.756 633.385 531.503 633.995 531.054C634.376 530.774 634.653 530.431 634.807 530.059C634.959 529.692 635.271 529.359 635.667 529.359V529.359Z"/>
</mask>
<path d="M635.667 529.359C636.064 529.359 636.394 529.687 636.286 530.068C636.1 530.72 635.66 531.323 635.011 531.801C634.131 532.449 632.937 532.812 631.693 532.812C630.448 532.813 629.255 532.449 628.374 531.801C627.725 531.323 627.286 530.72 627.1 530.068C626.991 529.687 627.322 529.359 627.718 529.359V529.359C628.115 529.359 628.426 529.692 628.578 530.059C628.732 530.431 629.009 530.774 629.39 531.054C630.001 531.503 630.829 531.756 631.693 531.756C632.556 531.756 633.385 531.503 633.995 531.054C634.376 530.774 634.653 530.431 634.807 530.059C634.959 529.692 635.271 529.359 635.667 529.359V529.359Z" fill="#8B8538"/>
<path d="M635.667 529.359C636.064 529.359 636.394 529.687 636.286 530.068C636.1 530.72 635.66 531.323 635.011 531.801C634.131 532.449 632.937 532.812 631.693 532.812C630.448 532.813 629.255 532.449 628.374 531.801C627.725 531.323 627.286 530.72 627.1 530.068C626.991 529.687 627.322 529.359 627.718 529.359V529.359C628.115 529.359 628.426 529.692 628.578 530.059C628.732 530.431 629.009 530.774 629.39 531.054C630.001 531.503 630.829 531.756 631.693 531.756C632.556 531.756 633.385 531.503 633.995 531.054C634.376 530.774 634.653 530.431 634.807 530.059C634.959 529.692 635.271 529.359 635.667 529.359V529.359Z" stroke="#8B8538" stroke-width="2" mask="url(#path-140-outside-8)"/>
<mask id="path-141-outside-9" maskUnits="userSpaceOnUse" x="628.833" y="521.375" width="9" height="5" fill="black">
<rect fill="white" x="628.833" y="521.375" width="9" height="5"/>
<path d="M635.884 522.896C636.161 522.896 636.391 523.124 636.319 523.391C636.192 523.864 635.884 524.303 635.426 524.649C634.812 525.114 633.978 525.375 633.109 525.375C632.241 525.375 631.407 525.114 630.793 524.649C630.335 524.303 630.027 523.864 629.899 523.391C629.827 523.124 630.058 522.896 630.335 522.896V522.896C630.612 522.896 630.829 523.128 630.93 523.385C631.037 523.657 631.232 523.908 631.502 524.112C631.928 524.435 632.506 524.616 633.109 524.616C633.712 524.616 634.291 524.435 634.717 524.112C634.987 523.908 635.182 523.657 635.289 523.385C635.39 523.128 635.607 522.896 635.884 522.896V522.896Z"/>
</mask>
<path d="M635.884 522.896C636.161 522.896 636.391 523.124 636.319 523.391C636.192 523.864 635.884 524.303 635.426 524.649C634.812 525.114 633.978 525.375 633.109 525.375C632.241 525.375 631.407 525.114 630.793 524.649C630.335 524.303 630.027 523.864 629.899 523.391C629.827 523.124 630.058 522.896 630.335 522.896V522.896C630.612 522.896 630.829 523.128 630.93 523.385C631.037 523.657 631.232 523.908 631.502 524.112C631.928 524.435 632.506 524.616 633.109 524.616C633.712 524.616 634.291 524.435 634.717 524.112C634.987 523.908 635.182 523.657 635.289 523.385C635.39 523.128 635.607 522.896 635.884 522.896V522.896Z" fill="#8B8538"/>
<path d="M635.884 522.896C636.161 522.896 636.391 523.124 636.319 523.391C636.192 523.864 635.884 524.303 635.426 524.649C634.812 525.114 633.978 525.375 633.109 525.375C632.241 525.375 631.407 525.114 630.793 524.649C630.335 524.303 630.027 523.864 629.899 523.391C629.827 523.124 630.058 522.896 630.335 522.896V522.896C630.612 522.896 630.829 523.128 630.93 523.385C631.037 523.657 631.232 523.908 631.502 524.112C631.928 524.435 632.506 524.616 633.109 524.616C633.712 524.616 634.291 524.435 634.717 524.112C634.987 523.908 635.182 523.657 635.289 523.385C635.39 523.128 635.607 522.896 635.884 522.896V522.896Z" stroke="#8B8538" stroke-width="2" mask="url(#path-141-outside-9)"/>
<rect x="655.754" y="400" width="3.80327" height="27.0654" rx="1.90163" fill="#8B8538" stroke="#8B8538" stroke-width="2"/>
<mask id="path-143-outside-10" maskUnits="userSpaceOnUse" x="654.754" y="412.131" width="14" height="8" fill="black">
<rect fill="white" x="654.754" y="412.131" width="14" height="8"/>
<path d="M665.58 414.434C665.984 414.434 666.32 414.767 666.219 415.158C666.036 415.869 665.584 416.528 664.912 417.048C664.016 417.742 662.8 418.131 661.533 418.131C660.265 418.131 659.05 417.742 658.154 417.048C657.481 416.528 657.03 415.869 656.846 415.158C656.746 414.767 657.081 414.434 657.485 414.434C657.889 414.434 658.206 414.772 658.348 415.15C658.503 415.561 658.789 415.94 659.188 416.248C659.81 416.729 660.653 417 661.533 417C662.412 417 663.256 416.729 663.877 416.248C664.276 415.94 664.563 415.561 664.717 415.15C664.859 414.772 665.176 414.434 665.58 414.434Z"/>
</mask>
<path d="M665.58 414.434C665.984 414.434 666.32 414.767 666.219 415.158C666.036 415.869 665.584 416.528 664.912 417.048C664.016 417.742 662.8 418.131 661.533 418.131C660.265 418.131 659.05 417.742 658.154 417.048C657.481 416.528 657.03 415.869 656.846 415.158C656.746 414.767 657.081 414.434 657.485 414.434C657.889 414.434 658.206 414.772 658.348 415.15C658.503 415.561 658.789 415.94 659.188 416.248C659.81 416.729 660.653 417 661.533 417C662.412 417 663.256 416.729 663.877 416.248C664.276 415.94 664.563 415.561 664.717 415.15C664.859 414.772 665.176 414.434 665.58 414.434Z" fill="#8B8538"/>
<path d="M665.58 414.434C665.984 414.434 666.32 414.767 666.219 415.158C666.036 415.869 665.584 416.528 664.912 417.048C664.016 417.742 662.8 418.131 661.533 418.131C660.265 418.131 659.05 417.742 658.154 417.048C657.481 416.528 657.03 415.869 656.846 415.158C656.746 414.767 657.081 414.434 657.485 414.434C657.889 414.434 658.206 414.772 658.348 415.15C658.503 415.561 658.789 415.94 659.188 416.248C659.81 416.729 660.653 417 661.533 417C662.412 417 663.256 416.729 663.877 416.248C664.276 415.94 664.563 415.561 664.717 415.15C664.859 414.772 665.176 414.434 665.58 414.434Z" stroke="#8B8538" stroke-width="4" mask="url(#path-143-outside-10)"/>
<mask id="path-144-outside-11" maskUnits="userSpaceOnUse" x="647" y="409.065" width="14" height="8" fill="black">
<rect fill="white" x="647" y="409.065" width="14" height="8"/>
<path d="M657.826 411.549C658.23 411.549 658.566 411.882 658.456 412.271C658.266 412.934 657.819 413.549 657.158 414.036C656.262 414.695 655.046 415.065 653.779 415.065C652.511 415.065 651.296 414.695 650.4 414.036C649.738 413.549 649.291 412.934 649.102 412.271C648.991 411.882 649.327 411.549 649.731 411.549C650.135 411.549 650.452 411.888 650.607 412.261C650.764 412.64 651.046 412.989 651.434 413.275C652.056 413.732 652.899 413.989 653.779 413.989C654.658 413.989 655.502 413.732 656.123 413.275C656.511 412.989 656.793 412.64 656.95 412.261C657.105 411.888 657.422 411.549 657.826 411.549Z"/>
</mask>
<path d="M657.826 411.549C658.23 411.549 658.566 411.882 658.456 412.271C658.266 412.934 657.819 413.549 657.158 414.036C656.262 414.695 655.046 415.065 653.779 415.065C652.511 415.065 651.296 414.695 650.4 414.036C649.738 413.549 649.291 412.934 649.102 412.271C648.991 411.882 649.327 411.549 649.731 411.549C650.135 411.549 650.452 411.888 650.607 412.261C650.764 412.64 651.046 412.989 651.434 413.275C652.056 413.732 652.899 413.989 653.779 413.989C654.658 413.989 655.502 413.732 656.123 413.275C656.511 412.989 656.793 412.64 656.95 412.261C657.105 411.888 657.422 411.549 657.826 411.549Z" fill="#8B8538"/>
<path d="M657.826 411.549C658.23 411.549 658.566 411.882 658.456 412.271C658.266 412.934 657.819 413.549 657.158 414.036C656.262 414.695 655.046 415.065 653.779 415.065C652.511 415.065 651.296 414.695 650.4 414.036C649.738 413.549 649.291 412.934 649.102 412.271C648.991 411.882 649.327 411.549 649.731 411.549C650.135 411.549 650.452 411.888 650.607 412.261C650.764 412.64 651.046 412.989 651.434 413.275C652.056 413.732 652.899 413.989 653.779 413.989C654.658 413.989 655.502 413.732 656.123 413.275C656.511 412.989 656.793 412.64 656.95 412.261C657.105 411.888 657.422 411.549 657.826 411.549Z" stroke="#8B8538" stroke-width="4" mask="url(#path-144-outside-11)"/>
<mask id="path-145-outside-12" maskUnits="userSpaceOnUse" x="649.885" y="402.492" width="11" height="7" fill="black">
<rect fill="white" x="649.885" y="402.492" width="11" height="7"/>
<path d="M658.047 404.967C658.329 404.967 658.564 405.2 658.49 405.472C658.36 405.953 658.046 406.4 657.58 406.752C656.955 407.226 656.106 407.492 655.221 407.492C654.337 407.492 653.488 407.226 652.862 406.752C652.396 406.4 652.082 405.953 651.953 405.472C651.879 405.2 652.114 404.967 652.396 404.967C652.678 404.967 652.899 405.203 653.002 405.466C653.111 405.743 653.309 405.998 653.584 406.206C654.019 406.534 654.607 406.719 655.221 406.719C655.835 406.719 656.424 406.534 656.858 406.206C657.133 405.998 657.332 405.743 657.441 405.466C657.544 405.203 657.765 404.967 658.047 404.967Z"/>
</mask>
<path d="M658.047 404.967C658.329 404.967 658.564 405.2 658.49 405.472C658.36 405.953 658.046 406.4 657.58 406.752C656.955 407.226 656.106 407.492 655.221 407.492C654.337 407.492 653.488 407.226 652.862 406.752C652.396 406.4 652.082 405.953 651.953 405.472C651.879 405.2 652.114 404.967 652.396 404.967C652.678 404.967 652.899 405.203 653.002 405.466C653.111 405.743 653.309 405.998 653.584 406.206C654.019 406.534 654.607 406.719 655.221 406.719C655.835 406.719 656.424 406.534 656.858 406.206C657.133 405.998 657.332 405.743 657.441 405.466C657.544 405.203 657.765 404.967 658.047 404.967Z" fill="#8B8538"/>
<path d="M658.047 404.967C658.329 404.967 658.564 405.2 658.49 405.472C658.36 405.953 658.046 406.4 657.58 406.752C656.955 407.226 656.106 407.492 655.221 407.492C654.337 407.492 653.488 407.226 652.862 406.752C652.396 406.4 652.082 405.953 651.953 405.472C651.879 405.2 652.114 404.967 652.396 404.967C652.678 404.967 652.899 405.203 653.002 405.466C653.111 405.743 653.309 405.998 653.584 406.206C654.019 406.534 654.607 406.719 655.221 406.719C655.835 406.719 656.424 406.534 656.858 406.206C657.133 405.998 657.332 405.743 657.441 405.466C657.544 405.203 657.765 404.967 658.047 404.967Z" stroke="#8B8538" stroke-width="4" mask="url(#path-145-outside-12)"/>
<path d="M337.301 398.322L316.806 424.242C316.404 420.826 315.962 412.186 319.82 404.953C323.678 397.719 333.082 397.518 337.301 398.322Z" fill="#969040"/>
<path d="M298.467 401.913L316.327 425.728C316.677 422.59 317.063 414.651 313.701 408.005C310.339 401.359 302.144 401.174 298.467 401.913Z" fill="#969040"/>
<path d="M349.751 422.695L316.713 423.267C319.1 420.791 325.504 414.974 333.544 413.374C341.584 411.775 347.699 418.922 349.751 422.695Z" fill="#969040"/>
<path d="M284.253 424.12L317.296 424.123C314.866 421.689 308.363 415.983 300.297 414.522C292.23 413.061 286.24 420.312 284.253 424.12Z" fill="#969040"/>
<path d="M341.718 442.864L315.35 422.949C318.756 422.472 327.384 421.838 334.702 425.535C342.019 429.231 342.428 438.628 341.718 442.864Z" fill="#969040"/>
<path d="M288.665 444.714L315.033 424.799C311.627 424.321 302.999 423.688 295.682 427.384C288.365 431.081 287.955 440.477 288.665 444.714Z" fill="#969040"/>
<path d="M320.167 487.767C320.649 488.249 309.92 487.968 304.495 487.767C304.495 484.753 306.303 459.717 306.303 459.114C309.317 436.811 318.961 417.241 316.55 425.078C314.139 432.914 319.564 487.164 320.167 487.767Z" fill="#935B4E"/>
<circle cx="313.536" cy="427.536" r="5.42505" fill="#935750"/>
<circle cx="319.564" cy="427.536" r="5.42505" fill="#935750"/>
<rect x="309.317" y="437.784" width="8.43897" height="1.20557" rx="0.602784" fill="#714230"/>
<rect x="308.111" y="442.606" width="9.64454" height="1.20557" rx="0.602784" fill="#714230"/>
<rect x="306.906" y="446.223" width="10.8501" height="2.41113" rx="1.20557" fill="#714230"/>
<rect x="305.7" y="452.251" width="13.2612" height="2.41113" rx="1.20557" fill="#714230"/>
<rect x="304.495" y="458.278" width="14.4668" height="2.41113" rx="1.20557" fill="#714230"/>
<rect x="303.289" y="464.306" width="15.6724" height="2.41113" rx="1.20557" fill="#714230"/>
<rect x="303.289" y="470.334" width="16.8779" height="2.41113" rx="1.20557" fill="#714230"/>
<rect x="302.083" y="478.773" width="19.2891" height="2.41113" rx="1.20557" fill="#714230"/>
<path d="M348.301 497.322L327.806 523.242C327.404 519.826 326.962 511.186 330.82 503.953C334.678 496.719 344.082 496.518 348.301 497.322Z" fill="#969040"/>
<path d="M309.467 500.913L327.327 524.728C327.677 521.59 328.063 513.651 324.701 507.005C321.339 500.359 313.144 500.174 309.467 500.913Z" fill="#969040"/>
<path d="M360.751 521.695L327.713 522.267C330.1 519.791 336.504 513.974 344.544 512.374C352.584 510.775 358.699 517.922 360.751 521.695Z" fill="#969040"/>
<path d="M295.253 523.12L328.296 523.123C325.866 520.689 319.363 514.983 311.297 513.522C303.23 512.061 297.24 519.312 295.253 523.12Z" fill="#969040"/>
<path d="M352.718 541.864L326.35 521.949C329.756 521.472 338.384 520.838 345.702 524.535C353.019 528.231 353.428 537.628 352.718 541.864Z" fill="#969040"/>
<path d="M299.665 543.714L326.033 523.799C322.627 523.321 313.999 522.688 306.682 526.384C299.365 530.081 298.955 539.477 299.665 543.714Z" fill="#969040"/>
<path d="M331.167 586.767C331.649 587.249 320.92 586.968 315.495 586.767C315.495 583.753 317.303 558.717 317.303 558.114C320.317 535.811 329.961 516.241 327.55 524.078C325.139 531.914 330.564 586.164 331.167 586.767Z" fill="#935B4E"/>
<circle cx="324.536" cy="526.536" r="5.42505" fill="#935750"/>
<circle cx="330.564" cy="526.536" r="5.42505" fill="#935750"/>
<rect x="320.317" y="536.784" width="8.43897" height="1.20557" rx="0.602784" fill="#714230"/>
<rect x="319.111" y="541.606" width="9.64454" height="1.20557" rx="0.602784" fill="#714230"/>
<rect x="317.906" y="545.223" width="10.8501" height="2.41113" rx="1.20557" fill="#714230"/>
<rect x="316.7" y="551.251" width="13.2612" height="2.41113" rx="1.20557" fill="#714230"/>
<rect x="315.495" y="557.278" width="14.4668" height="2.41113" rx="1.20557" fill="#714230"/>
<rect x="314.289" y="563.306" width="15.6724" height="2.41113" rx="1.20557" fill="#714230"/>
<rect x="314.289" y="569.334" width="16.8779" height="2.41113" rx="1.20557" fill="#714230"/>
<rect x="313.083" y="577.773" width="19.2891" height="2.41113" rx="1.20557" fill="#714230"/>
<path d="M415.542 450.166L426.1 463.518C426.307 461.759 426.535 457.308 424.547 453.582C422.56 449.855 417.716 449.752 415.542 450.166Z" fill="#969040"/>
<path d="M435.547 452.016L426.347 464.284C426.166 462.667 425.968 458.578 427.7 455.154C429.432 451.73 433.653 451.635 435.547 452.016Z" fill="#969040"/>
<path d="M409.128 462.722L426.148 463.016C424.918 461.741 421.619 458.744 417.477 457.92C413.335 457.096 410.185 460.778 409.128 462.722Z" fill="#969040"/>
<path d="M442.87 463.456L425.847 463.457C427.099 462.203 430.449 459.264 434.605 458.511C438.76 457.759 441.846 461.494 442.87 463.456Z" fill="#969040"/>
<path d="M413.266 473.112L426.85 462.853C425.095 462.607 420.65 462.28 416.881 464.185C413.111 466.089 412.901 470.929 413.266 473.112Z" fill="#969040"/>
<path d="M440.597 474.065L427.013 463.805C428.768 463.56 433.213 463.233 436.982 465.137C440.752 467.042 440.963 471.882 440.597 474.065Z" fill="#969040"/>
<path d="M424.368 496.244C424.12 496.492 429.647 496.347 432.442 496.244C432.442 494.691 431.511 481.794 431.511 481.483C429.958 469.994 424.99 459.912 426.232 463.949C427.474 467.986 424.679 495.933 424.368 496.244Z" fill="#935B4E"/>
<circle r="2.79473" transform="matrix(-1 0 0 1 427.784 465.216)" fill="#935750"/>
<circle r="2.79473" transform="matrix(-1 0 0 1 424.679 465.216)" fill="#935750"/>
<rect width="4.34735" height="0.621051" rx="0.310525" transform="matrix(-1 0 0 1 429.958 470.495)" fill="#714230"/>
<rect width="4.9684" height="0.621051" rx="0.310525" transform="matrix(-1 0 0 1 430.579 472.979)" fill="#714230"/>
<rect width="5.58946" height="1.2421" rx="0.621051" transform="matrix(-1 0 0 1 431.2 474.842)" fill="#714230"/>
<rect width="6.83156" height="1.2421" rx="0.621051" transform="matrix(-1 0 0 1 431.821 477.947)" fill="#714230"/>
<rect width="7.45261" height="1.2421" rx="0.621051" transform="matrix(-1 0 0 1 432.442 481.053)" fill="#714230"/>
<rect width="8.07366" height="1.2421" rx="0.621051" transform="matrix(-1 0 0 1 433.063 484.158)" fill="#714230"/>
<rect width="8.69471" height="1.2421" rx="0.621051" transform="matrix(-1 0 0 1 433.063 487.263)" fill="#714230"/>
<rect width="9.93681" height="1.2421" rx="0.621051" transform="matrix(-1 0 0 1 433.684 491.61)" fill="#714230"/>
<path d="M389.273 402.147L379.94 413.95C379.757 412.395 379.555 408.46 381.312 405.166C383.069 401.872 387.351 401.781 389.273 402.147Z" fill="#969040"/>
<path d="M371.588 403.782L379.721 414.627C379.881 413.198 380.056 409.583 378.525 406.556C376.994 403.529 373.263 403.445 371.588 403.782Z" fill="#969040"/>
<path d="M394.942 413.246L379.897 413.506C380.984 412.379 383.9 409.73 387.562 409.001C391.223 408.273 394.008 411.527 394.942 413.246Z" fill="#969040"/>
<path d="M365.115 413.895L380.163 413.896C379.056 412.788 376.095 410.189 372.421 409.524C368.748 408.859 366.02 412.161 365.115 413.895Z" fill="#969040"/>
<path d="M391.284 422.431L379.277 413.362C380.828 413.144 384.757 412.856 388.089 414.539C391.421 416.222 391.607 420.501 391.284 422.431Z" fill="#969040"/>
<path d="M367.124 423.273L379.132 414.204C377.581 413.986 373.652 413.698 370.32 415.381C366.988 417.065 366.801 421.344 367.124 423.273Z" fill="#969040"/>
<path d="M381.47 442.879C381.69 443.098 376.804 442.97 374.333 442.879C374.333 441.506 375.157 430.105 375.157 429.831C376.529 419.674 380.921 410.762 379.823 414.331C378.725 417.899 381.196 442.604 381.47 442.879Z" fill="#935B4E"/>
<circle cx="378.45" cy="415.451" r="2.4705" fill="#935750"/>
<circle cx="381.195" cy="415.451" r="2.4705" fill="#935750"/>
<rect x="376.529" y="420.117" width="3.843" height="0.549" rx="0.2745" fill="#714230"/>
<rect x="375.98" y="422.313" width="4.392" height="0.549" rx="0.2745" fill="#714230"/>
<rect x="375.431" y="423.96" width="4.941" height="1.098" rx="0.549" fill="#714230"/>
<rect x="374.882" y="426.705" width="6.039" height="1.098" rx="0.549" fill="#714230"/>
<rect x="374.333" y="429.45" width="6.588" height="1.098" rx="0.549" fill="#714230"/>
<rect x="373.784" y="432.195" width="7.137" height="1.098" rx="0.549" fill="#714230"/>
<rect x="373.784" y="434.94" width="7.686" height="1.098" rx="0.549" fill="#714230"/>
<rect x="373.235" y="438.783" width="8.784" height="1.098" rx="0.549" fill="#714230"/>
<path d="M545.196 461.968L542.953 462.809C542.819 462.859 542.698 462.937 542.597 463.038L540.28 465.355C540.184 465.451 540.109 465.565 540.058 465.691L539.552 466.956C539.505 467.074 539.481 467.2 539.481 467.327V468.621C539.481 469.09 539.806 469.495 540.264 469.597L542.347 470.06C542.397 470.071 542.449 470.079 542.501 470.082L547.484 470.393C547.596 470.4 547.707 470.426 547.811 470.47L555.806 473.853C556.03 473.948 556.281 473.958 556.512 473.881L558.622 473.177C558.92 473.078 559.155 472.843 559.254 472.545L559.601 471.505C559.695 471.222 559.658 470.911 559.5 470.658L558.278 468.702C558.172 468.533 558.018 468.399 557.836 468.318L555.173 467.135L552.244 465.67C552.025 465.56 551.854 465.374 551.763 465.147L551.354 464.126C551.286 463.955 551.172 463.807 551.026 463.697L550.038 462.957C549.974 462.909 549.905 462.869 549.832 462.837L547.842 461.985C547.718 461.931 547.584 461.904 547.449 461.904H545.547C545.427 461.904 545.308 461.925 545.196 461.968Z" fill="#F9E2BB"/>
<path d="M541.769 467.135L535.885 465.827L530 460.269L537.192 463.212L542.75 464.192L541.769 467.135Z" fill="#EAC48E"/>
<path d="M550.577 463.865H548.288L546 462.231L557.769 457L553.192 460.923L550.577 463.865Z" fill="#EAC48E"/>
<path d="M545.728 466.962C545.886 467.314 546.342 467.528 546.734 467.528C547.171 467.528 547.225 467.218 547.457 466.934C547.892 466.401 546.952 466.396 546.573 466.396C546.399 466.396 546.062 466.326 545.93 466.473C545.839 466.574 545.94 466.859 546.042 466.913C546.258 467.027 546.427 467.025 546.671 467.025C546.928 467.025 546.874 466.836 546.608 466.836C546.363 466.836 546.042 466.723 546.042 467.025C546.042 467.226 546.276 467.529 546.51 467.395C546.763 467.25 546.384 466.763 546.262 466.679C546.068 466.545 545.86 466.522 545.633 466.522C545.484 466.522 545.396 466.767 545.49 466.885C545.597 467.019 545.778 466.977 545.916 467.039C545.985 467.069 546.45 467.096 546.405 467.039C546.328 466.939 546.204 466.724 546.356 466.647" stroke="#696262" stroke-linecap="round" stroke-linejoin="round"/>
<path d="M550.129 465.327C550.299 465.327 550.632 465.246 550.632 465.516C550.632 465.686 550.253 465.711 550.129 465.704C549.995 465.697 550.069 465.39 550.129 465.327C550.287 465.159 550.2 465.264 550.066 465.264" stroke="#696262" stroke-linecap="round" stroke-linejoin="round"/>
<rect x="420" y="531.936" width="3.11709" height="18.1682" transform="rotate(-67.812 420 531.936)" fill="#DB4121"/>
<rect x="426.655" y="542.876" width="3.11709" height="18.1682" transform="rotate(-156.136 426.655 542.876)" fill="#DB4121"/>
<circle cx="533.5" cy="425.5" r="5.5" fill="#605D5D"/>
<circle cx="743.5" cy="426.5" r="5.5" fill="#605D5D"/>
<circle cx="594.5" cy="571.5" r="5.5" fill="#605D5D"/>
<circle cx="723.5" cy="611.5" r="5.5" fill="#605D5D"/>
</svg>
