<svg width="1110" height="286" viewBox="0 0 1110 286" fill="none" xmlns="http://www.w3.org/2000/svg">
<path d="M1052 80.6836L1072.66 72.441L1081.17 52.0001L1087.02 72.441L1109.86 81.1723L1087.46 90.0678L1080.68 109.856L1072.66 90.0678L1052 80.6836Z" fill="#F3AA56"/>
<path d="M1028 131.248L1038.45 127.079L1042.75 116.742L1045.71 127.079L1057.26 131.495L1045.93 135.993L1042.51 146L1038.45 135.993L1028 131.248Z" fill="#F3AA56"/>
<path d="M94 256.684L114.658 248.441L123.172 228L129.021 248.441L151.856 257.172L129.456 266.068L122.683 285.856L114.658 266.068L94 256.684Z" fill="#F3AA56"/>
<path d="M0 116.248L10.4471 112.079L14.7526 101.742L17.7104 112.079L29.258 116.495L17.9305 120.993L14.5054 131L10.4471 120.993L0 116.248Z" fill="#F3AA56"/>
<path d="M429 14.5054L439.447 10.337L443.753 -5.91702e-05L446.71 10.337L458.258 14.7525L446.93 19.251L443.505 29.2579L439.447 19.251L429 14.5054Z" fill="#F3AA56"/>
</svg>
